<?xml version="1.0" encoding="UTF-8" standalone="no"?>
<!DOCTYPE svg PUBLIC "-//W3C//DTD SVG 1.1//EN" "http://www.w3.org/Graphics/SVG/1.1/DTD/svg11.dtd">
<svg xmlns="http://www.w3.org/2000/svg" version="1.1" viewBox="0.00 0.00 290.00 174.00">
<g stroke-width="2.00" fill="none" stroke-linecap="butt">
<path stroke="#e6e6e6" vector-effect="non-scaling-stroke" d="
  M 99.59 45.29
  L 99.78 46.14
  Q 99.92 46.73 99.32 46.80
  Q 98.64 46.89 98.32 47.29
  Q 98.05 47.62 98.13 48.19
  C 98.53 51.25 101.43 58.00 105.45 55.53
  A 0.31 0.25 -11.8 0 0 105.55 55.41
  L 107.71 50.80
  A 1.05 1.03 5.4 0 1 108.40 50.24
  Q 110.72 49.66 112.65 48.29
  C 115.36 46.38 119.26 47.20 120.08 43.36
  Q 120.17 42.98 119.82 42.82
  Q 119.54 42.68 119.46 42.67
  A 0.92 0.91 45.4 0 1 119.47 40.85
  Q 121.38 40.67 121.46 38.50
  C 121.61 34.48 120.24 30.12 125.71 28.91
  A 0.59 0.59 0.0 0 0 126.18 28.31
  Q 126.15 27.65 125.49 27.76
  C 122.31 28.30 117.78 28.90 115.38 27.39
  Q 114.51 26.85 115.53 26.91
  L 119.38 27.13
  A 0.38 0.37 60.2 0 0 119.57 26.42
  C 112.28 22.65 105.31 26.67 98.10 26.98
  Q 93.42 27.19 89.53 29.99
  A 0.74 0.74 0.0 0 0 89.22 30.48
  L 89.09 31.18
  Q 88.98 31.77 88.42 31.98
  L 85.53 33.05
  A 0.58 0.57 60.0 0 0 85.29 33.96
  L 87.25 36.38
  A 0.75 0.73 65.7 0 0 87.93 36.65
  C 94.06 35.78 95.81 38.76 98.08 43.60
  Q 98.29 44.06 97.98 44.45
  Q 97.52 45.03 97.82 45.78
  A 0.54 0.54 0.0 0 0 98.78 45.86
  L 99.17 45.22
  Q 99.46 44.75 99.59 45.29"
/>
<path stroke="#e6e6e6" vector-effect="non-scaling-stroke" d="
  M 75.52 30.65
  C 71.97 31.44 71.13 27.06 67.76 30.30
  A 0.85 0.85 0.0 0 0 68.24 31.76
  Q 70.17 32.01 70.70 33.87
  A 0.58 0.58 0.0 0 0 71.49 34.24
  L 73.65 33.28
  Q 74.15 33.06 74.46 32.61
  Q 75.07 31.69 76.49 32.05
  Q 77.16 32.23 76.57 32.60
  L 75.97 32.97
  Q 75.52 33.26 75.37 33.78
  Q 75.07 34.85 73.79 34.80
  C 73.44 34.78 73.02 35.03 72.88 35.31
  Q 72.53 35.98 73.28 35.98
  L 78.66 35.98
  Q 79.23 35.98 79.51 35.48
  Q 80.10 34.40 81.30 33.97
  A 1.29 1.29 0.0 0 0 82.04 33.30
  C 82.53 32.31 82.89 31.74 83.95 31.26
  Q 87.94 29.46 91.54 27.10
  A 0.41 0.41 0.0 0 0 91.38 26.36
  Q 81.60 24.80 72.14 27.94
  A 0.39 0.39 0.0 0 0 71.88 28.31
  Q 71.88 28.70 72.21 28.96
  C 72.91 29.50 74.51 29.39 75.61 30.15
  Q 76.14 30.51 75.52 30.65"
/>
<path stroke="#e6e6e6" vector-effect="non-scaling-stroke" d="
  M 207.8829 33.6886
  A 0.39 0.39 0.0 0 0 207.7207 33.1615
  L 201.3753 29.8017
  A 0.39 0.39 0.0 0 0 200.8481 29.9639
  L 200.7171 30.2114
  A 0.39 0.39 0.0 0 0 200.8793 30.7385
  L 207.2247 34.0983
  A 0.39 0.39 0.0 0 0 207.7519 33.9361
  L 207.8829 33.6886"
/>
<path stroke="#e6e6e6" vector-effect="non-scaling-stroke" d="
  M 149.12 32.33
  A 1.11 1.11 0.0 0 1 150.19 31.65
  L 153.92 31.78
  A 0.53 0.53 0.0 0 0 154.07 30.74
  Q 151.29 29.97 148.60 31.04
  C 147.11 31.64 146.34 31.88 144.88 31.44
  A 0.67 0.67 0.0 0 0 144.26 32.59
  L 144.99 33.21
  A 0.41 0.41 0.0 0 0 145.57 33.14
  L 146.56 31.86
  A 0.56 0.56 0.0 0 1 147.51 32.43
  L 146.51 34.65
  A 0.52 0.52 0.0 0 0 146.56 35.16
  L 146.90 35.67
  Q 147.40 36.39 147.74 35.59
  L 149.12 32.33"
/>
<path stroke="#e6e6e6" vector-effect="non-scaling-stroke" d="
  M 68.13 34.86
  L 68.85 36.33
  A 0.96 0.95 76.2 0 0 69.72 36.86
  Q 71.13 36.82 71.07 38.13
  A 0.64 0.64 0.0 0 0 71.70 38.80
  L 78.32 38.91
  Q 78.81 38.92 78.85 38.43
  L 78.88 38.00
  Q 78.93 37.34 78.27 37.38
  Q 76.01 37.51 73.75 37.72
  Q 72.79 37.80 72.36 36.60
  Q 72.19 36.13 71.69 36.11
  L 70.00 36.03
  A 0.78 0.78 0.0 0 1 69.27 35.44
  Q 68.54 32.65 65.81 33.14
  A 1.17 1.14 -31.2 0 1 64.91 32.93
  Q 63.23 31.67 61.27 32.38
  Q 60.93 32.50 61.25 32.66
  Q 63.86 33.91 66.73 33.97
  A 1.60 1.60 0.0 0 1 68.13 34.86"
/>
<path stroke="#e6e6e6" vector-effect="non-scaling-stroke" d="
  M 58.6119 33.3640
  A 1.58 0.62 -29.0 0 0 56.9294 33.5877
  A 1.58 0.62 -29.0 0 0 55.8481 34.8960
  A 1.58 0.62 -29.0 0 0 57.5306 34.6723
  A 1.58 0.62 -29.0 0 0 58.6119 33.3640"
/>
<path stroke="#e6e6e6" vector-effect="non-scaling-stroke" d="
  M 211.57 39.57
  Q 212.39 38.72 213.63 38.62
  A 0.95 0.95 0.0 0 0 213.82 36.76
  L 207.99 35.02
  A 0.80 0.78 -48.3 0 0 207.42 35.06
  C 204.03 36.67 200.47 37.13 197.34 38.89
  Q 193.90 40.83 190.48 42.80
  Q 190.05 43.06 189.56 42.92
  L 188.51 42.63
  Q 187.85 42.44 187.91 43.13
  L 188.18 46.29
  A 0.44 0.44 0.0 0 0 188.80 46.65
  Q 189.49 46.34 190.13 46.56
  A 0.29 0.29 0.0 0 1 190.03 47.12
  L 189.34 47.12
  Q 188.89 47.12 188.70 47.53
  Q 188.02 49.08 186.44 49.60
  A 0.48 0.48 0.0 0 1 185.93 48.82
  L 186.95 47.71
  Q 187.27 47.36 187.17 46.90
  L 186.60 44.12
  Q 186.50 43.62 186.76 43.19
  Q 187.42 42.11 186.12 41.37
  Q 185.78 41.18 185.45 41.37
  Q 182.46 43.14 183.85 46.34
  Q 184.08 46.85 183.53 46.78
  C 181.81 46.58 180.38 44.90 178.73 45.74
  C 176.28 46.98 174.00 47.25 171.24 47.18
  A 1.18 1.17 25.2 0 0 170.45 47.46
  Q 168.52 49.07 166.02 49.37
  A 1.30 1.28 16.2 0 0 165.17 49.83
  Q 163.70 51.61 161.39 51.84
  A 0.67 0.66 -21.2 0 1 160.81 51.59
  L 159.15 49.42
  Q 158.70 48.82 159.44 48.94
  L 163.66 49.60
  A 0.71 0.71 0.0 0 0 164.35 48.49
  C 163.03 46.59 159.55 45.79 157.41 44.98
  C 152.41 43.11 148.52 44.71 145.58 48.96
  Q 143.27 52.32 139.78 54.55
  Q 139.24 54.90 139.49 55.49
  L 140.69 58.30
  A 0.63 0.63 0.0 0 0 141.73 58.48
  L 142.66 57.49
  A 0.59 0.59 0.0 0 1 143.62 57.62
  L 144.96 60.21
  A 1.12 1.12 0.0 0 0 146.98 60.13
  L 148.30 57.03
  A 0.88 0.88 0.0 0 0 148.24 56.22
  C 146.94 54.11 150.38 51.76 151.64 50.14
  A 0.83 0.83 0.0 0 1 153.06 50.96
  C 152.61 52.02 151.33 52.43 150.90 53.53
  Q 150.32 55.00 151.53 55.99
  Q 151.93 56.32 152.44 56.26
  L 155.41 55.93
  A 0.45 0.45 0.0 0 1 155.60 56.81
  Q 151.92 58.07 149.90 61.44
  Q 149.57 61.99 148.93 62.07
  L 143.55 62.67
  Q 142.78 62.75 143.01 62.01
  Q 143.44 60.62 142.49 59.65
  A 0.49 0.49 0.0 0 0 141.66 60.13
  L 142.17 61.92
  Q 142.41 62.77 141.56 62.98
  Q 138.64 63.70 137.07 66.33
  A 1.39 1.36 8.8 0 1 136.20 66.95
  L 133.53 67.52
  A 0.55 0.55 0.0 0 0 133.31 68.50
  Q 134.87 69.69 135.11 71.64
  A 0.57 0.57 0.0 0 1 134.53 72.29
  L 130.41 72.20
  A 0.65 0.65 0.0 0 0 129.74 72.85
  L 129.75 76.76
  A 1.03 1.03 0.0 0 0 130.27 77.64
  C 132.41 78.85 134.21 78.08 135.54 76.00
  Q 137.79 72.47 141.99 71.66
  Q 142.57 71.55 143.00 71.95
  L 146.90 75.65
  A 0.49 0.49 0.0 0 0 147.65 75.54
  Q 147.75 75.36 147.76 75.14
  Q 147.77 74.83 147.45 74.52
  Q 145.65 72.72 143.90 71.03
  A 0.52 0.52 0.0 0 1 144.44 70.16
  Q 148.65 71.69 150.20 76.04
  Q 150.54 77.03 151.36 77.45
  A 0.42 0.42 0.0 0 0 151.97 76.99
  Q 151.36 74.24 153.93 74.40
  Q 154.35 74.43 154.52 74.05
  L 156.37 70.09
  A 0.85 0.84 29.2 0 1 157.60 69.75
  Q 159.43 70.97 160.96 69.72
  Q 161.52 69.26 161.84 69.90
  Q 162.91 71.97 165.04 73.00
  A 0.64 0.64 0.0 0 1 164.70 74.22
  L 158.97 73.67
  A 1.73 1.72 40.1 0 0 158.36 73.72
  L 154.80 74.71
  Q 154.28 74.85 154.26 75.39
  C 154.12 78.82 158.10 78.27 160.25 78.14
  Q 160.90 78.10 160.76 78.74
  L 159.96 82.20
  Q 159.85 82.71 159.41 82.43
  C 158.89 82.10 158.39 81.93 157.72 82.02
  Q 154.42 82.46 151.33 81.23
  A 0.99 0.97 -50.3 0 0 150.43 81.32
  L 149.12 82.22
  Q 148.77 82.45 148.36 82.39
  Q 144.35 81.80 142.80 78.22
  Q 142.60 77.74 142.08 77.71
  Q 140.62 77.64 139.18 77.74
  C 136.66 77.91 134.99 79.49 131.90 79.05
  Q 131.35 78.97 131.04 79.43
  C 126.95 85.34 120.81 90.07 125.76 97.98
  C 128.71 102.69 132.61 102.45 137.47 100.57
  Q 137.98 100.37 138.48 100.61
  L 142.52 102.49
  Q 142.92 102.68 142.88 103.12
  L 142.59 106.14
  Q 142.54 106.68 142.90 107.09
  Q 146.71 111.33 144.09 116.68
  A 0.62 0.59 50.3 0 0 144.06 117.12
  L 148.38 129.87
  A 0.77 0.77 0.0 0 0 148.99 130.38
  C 155.34 131.22 156.92 126.78 159.72 122.28
  Q 159.96 121.90 159.93 121.46
  Q 159.74 118.17 162.81 117.02
  A 1.71 1.71 0.0 0 0 163.89 115.08
  C 163.23 111.81 161.68 107.44 165.35 105.09
  Q 169.29 102.56 171.40 97.84
  A 0.85 0.85 0.0 0 0 170.17 96.78
  Q 168.53 97.82 166.70 97.34
  C 163.56 96.52 160.00 87.36 158.86 84.45
  Q 158.57 83.71 159.29 83.67
  A 0.47 0.46 74.0 0 1 159.71 83.91
  L 166.32 95.78
  Q 166.51 96.10 166.87 96.00
  Q 172.63 94.38 177.14 90.49
  A 1.44 1.43 -51.1 0 0 176.89 88.14
  L 175.99 87.65
  Q 175.54 87.40 175.04 87.48
  Q 170.04 88.24 169.14 83.15
  A 0.35 0.34 -73.0 0 1 169.72 82.84
  C 171.11 84.18 172.09 85.39 174.02 85.94
  Q 177.64 86.96 181.45 86.89
  A 1.31 1.27 -24.4 0 1 182.32 87.20
  L 186.25 90.52
  A 0.74 0.67 -83.3 0 1 186.47 90.83
  L 189.40 98.80
  A 0.92 0.92 0.0 0 0 191.15 98.71
  L 192.16 94.81
  Q 192.31 94.23 192.75 93.83
  L 197.80 89.29
  A 1.48 1.47 -30.2 0 1 200.18 89.91
  Q 201.03 92.43 203.15 93.96
  Q 203.53 94.23 203.63 94.69
  L 204.11 96.77
  A 0.22 0.22 0.0 0 0 204.51 96.83
  Q 205.29 95.54 206.56 96.41
  Q 207.30 96.91 208.23 98.53
  Q 208.54 99.07 209.03 98.68
  L 211.52 96.71
  A 0.82 0.81 -34.8 0 0 211.72 95.65
  L 209.56 92.01
  A 1.25 1.25 0.0 0 1 210.53 90.12
  C 216.06 89.64 222.22 86.92 219.47 80.06
  A 0.49 0.49 0.0 0 1 219.44 79.77
  L 219.69 78.25
  A 0.76 0.76 0.0 0 0 219.25 77.44
  L 218.08 76.90
  A 0.47 0.47 0.0 0 1 218.05 76.06
  Q 220.81 74.55 223.07 76.58
  A 1.39 1.39 0.0 0 1 223.49 77.29
  Q 223.90 78.94 225.14 80.05
  A 0.46 0.46 0.0 0 0 225.86 79.51
  Q 224.21 76.26 226.33 73.49
  A 1.06 1.05 -71.8 0 1 227.15 73.07
  C 231.11 72.99 233.27 68.77 234.28 65.49
  A 0.31 0.30 -41.8 0 1 234.87 65.52
  L 235.27 67.77
  A 0.32 0.32 0.0 0 0 235.89 67.78
  Q 236.32 65.65 235.24 63.77
  Q 234.98 63.33 234.47 63.23
  L 230.99 62.56
  A 0.55 0.55 0.0 0 1 230.68 61.66
  Q 235.26 56.40 242.28 57.61
  A 1.25 1.23 -61.0 0 0 243.32 57.30
  Q 246.22 54.66 250.28 54.98
  Q 250.89 55.03 250.44 55.44
  L 245.47 60.00
  Q 245.13 60.32 245.11 60.78
  L 244.98 65.22
  A 0.43 0.43 0.0 0 0 245.71 65.53
  Q 248.90 62.35 249.76 58.03
  A 1.85 1.84 4.2 0 1 251.48 56.55
  Q 256.27 56.32 260.37 53.78
  Q 260.83 53.49 260.95 52.95
  Q 261.28 51.43 262.56 50.56
  Q 263.09 50.21 263.67 50.46
  L 265.86 51.44
  Q 266.39 51.67 266.91 51.40
  L 268.31 50.68
  A 0.50 0.50 0.0 0 0 268.21 49.75
  C 265.11 48.92 262.84 46.65 259.64 45.86
  C 256.87 45.18 253.15 46.20 250.75 45.64
  Q 242.97 43.82 235.25 41.80
  Q 234.81 41.69 234.42 41.92
  Q 229.52 44.86 225.00 41.56
  Q 224.66 41.31 224.23 41.29
  Q 219.73 41.12 215.39 39.94
  C 214.07 39.58 213.09 39.95 211.77 40.00
  Q 211.13 40.02 211.57 39.57"
/>
<path stroke="#e6e6e6" vector-effect="non-scaling-stroke" d="
  M 54.1363 35.3547
  A 2.48 0.51 -15.8 0 0 51.6111 35.5393
  A 2.48 0.51 -15.8 0 0 49.3637 36.7053
  A 2.48 0.51 -15.8 0 0 51.8889 36.5207
  A 2.48 0.51 -15.8 0 0 54.1363 35.3547"
/>
<path stroke="#e6e6e6" vector-effect="non-scaling-stroke" d="
  M 64.98 37.97
  Q 65.83 38.37 66.74 38.11
  A 0.65 0.65 0.0 0 0 67.03 37.04
  L 65.88 35.81
  Q 65.30 35.18 64.96 35.97
  Q 64.49 37.02 63.40 37.07
  Q 62.76 37.10 63.25 37.52
  Q 63.70 37.90 64.34 37.85
  A 1.36 1.29 -32.7 0 1 64.98 37.97"
/>
<path stroke="#e6e6e6" vector-effect="non-scaling-stroke" d="
  M 174.60 41.83
  C 176.57 37.73 179.70 37.68 183.62 36.84
  A 0.30 0.30 0.0 0 0 183.57 36.24
  Q 176.09 35.98 172.75 42.50
  Q 172.47 43.05 173.03 43.32
  L 174.45 44.03
  A 0.37 0.37 0.0 0 0 174.95 43.54
  L 174.60 42.81
  A 1.15 1.15 0.0 0 1 174.60 41.83"
/>
<path stroke="#e6e6e6" vector-effect="non-scaling-stroke" d="
  M 54.63 36.88
  Q 54.24 37.08 53.91 37.36
  Q 53.48 37.72 54.01 37.89
  Q 57.43 38.99 60.74 38.11
  Q 62.11 37.74 60.80 37.20
  L 58.51 36.24
  A 0.37 0.37 0.0 0 0 58.11 36.85
  L 58.72 37.44
  Q 59.04 37.74 58.62 37.90
  Q 58.50 37.94 58.37 37.98
  A 0.93 0.93 0.0 0 1 57.50 37.85
  L 55.52 36.37
  Q 55.01 36.00 54.70 36.55
  Q 54.63 36.68 54.63 36.88"
/>
<path stroke="#e6e6e6" vector-effect="non-scaling-stroke" d="
  M 232.61 37.39
  A 0.53 0.53 0.0 0 0 232.73 38.44
  L 236.98 38.23
  A 0.25 0.24 -35.8 0 0 237.06 37.76
  Q 234.89 36.97 232.61 37.39"
/>
<path stroke="#e6e6e6" vector-effect="non-scaling-stroke" d="
  M 59.04 42.73
  L 58.55 41.92
  Q 58.34 41.58 57.94 41.61
  Q 55.89 41.77 54.43 40.64
  Q 53.99 40.30 53.44 40.17
  L 48.90 39.07
  A 0.63 0.62 13.0 0 0 48.15 39.53
  L 47.45 42.52
  A 1.04 1.03 -12.8 0 0 49.11 43.56
  C 52.36 40.94 52.95 45.39 56.44 43.51
  A 0.32 0.32 0.0 0 1 56.82 44.01
  Q 55.67 45.25 53.90 45.15
  A 0.34 0.33 86.6 0 0 53.55 45.55
  L 53.60 45.83
  A 0.43 0.42 -10.5 0 0 54.09 46.16
  Q 55.36 45.92 56.37 46.62
  Q 56.87 46.97 57.39 46.64
  Q 59.09 45.54 60.64 46.71
  A 0.24 0.24 0.0 0 0 61.02 46.53
  L 61.03 46.00
  A 0.36 0.35 -59.3 0 1 61.69 45.83
  L 62.10 46.54
  Q 62.35 46.96 62.69 46.61
  L 63.72 45.55
  A 0.59 0.58 30.1 0 0 63.46 44.58
  Q 60.48 43.73 61.62 40.82
  A 0.41 0.41 0.0 0 0 61.07 40.30
  Q 59.65 40.95 59.64 42.56
  A 0.33 0.32 -60.7 0 1 59.04 42.73"
/>
<path stroke="#e6e6e6" vector-effect="non-scaling-stroke" d="
  M 87.17 49.36
  Q 88.60 49.29 89.67 50.30
  A 0.87 0.86 54.4 0 0 90.61 50.46
  L 91.64 50.01
  A 0.47 0.47 0.0 0 0 91.77 49.23
  C 90.54 48.11 89.21 47.60 88.13 46.28
  Q 86.11 43.79 82.96 42.65
  A 2.56 2.50 -9.4 0 1 81.93 41.93
  Q 79.80 39.45 76.31 40.35
  Q 75.83 40.48 75.80 40.98
  L 75.66 43.48
  A 0.37 0.37 0.0 0 1 74.93 43.51
  L 74.55 40.82
  A 0.60 0.60 0.0 0 0 73.59 40.44
  L 72.57 41.24
  Q 72.10 41.61 72.25 42.20
  Q 72.87 44.68 75.07 45.05
  Q 75.68 45.16 75.55 45.76
  L 74.95 48.59
  A 0.48 0.48 0.0 0 1 74.07 48.73
  L 72.83 46.58
  A 0.72 0.71 -17.6 0 0 72.13 46.22
  Q 70.25 46.42 70.53 44.53
  Q 70.60 44.04 70.21 43.74
  L 69.14 42.90
  A 0.55 0.54 49.5 0 1 69.21 41.99
  L 71.25 40.88
  A 0.37 0.36 -49.6 0 0 71.20 40.21
  L 69.46 39.63
  Q 68.92 39.45 68.66 39.95
  Q 68.18 40.88 68.62 41.88
  A 0.65 0.61 -49.4 0 1 68.64 42.34
  L 67.78 44.92
  Q 67.66 45.30 67.28 45.43
  L 66.14 45.84
  A 0.52 0.51 55.0 0 0 65.99 46.73
  Q 66.44 47.10 66.37 47.44
  Q 66.27 47.89 65.50 48.00
  Q 63.53 48.28 61.86 47.18
  Q 61.44 46.91 61.00 47.14
  Q 59.03 48.20 56.87 48.10
  Q 55.74 48.05 53.66 46.81
  C 51.62 45.59 48.83 45.59 46.73 45.36
  Q 44.96 45.17 43.32 45.60
  C 35.84 47.59 24.65 40.39 19.05 46.92
  Q 17.98 48.17 19.62 48.26
  Q 21.11 48.34 21.53 49.65
  A 0.50 0.50 0.0 0 1 20.79 50.23
  Q 19.95 49.73 18.99 49.66
  A 0.99 0.99 0.0 0 0 18.66 51.61
  Q 19.94 51.96 20.95 51.17
  Q 21.51 50.74 21.72 51.42
  L 21.98 52.26
  Q 22.21 52.99 21.47 53.16
  L 19.82 53.53
  A 1.58 1.57 -40.7 0 0 19.59 56.53
  L 23.67 58.11
  Q 24.21 58.32 24.56 58.78
  Q 25.20 59.63 26.28 59.40
  A 1.05 1.03 2.4 0 0 27.05 58.70
  L 27.40 57.58
  Q 27.54 57.13 28.00 57.00
  C 37.07 54.40 42.15 59.64 46.65 66.51
  C 49.37 70.67 46.91 76.01 51.39 79.86
  C 55.07 83.02 58.55 85.88 61.27 89.96
  Q 63.45 93.22 67.51 93.83
  C 70.26 94.24 71.84 95.32 74.32 96.09
  Q 74.82 96.25 75.00 96.74
  C 75.40 97.83 76.84 100.03 78.24 99.80
  Q 78.49 99.76 78.66 99.65
  Q 79.12 99.36 78.61 99.17
  Q 75.99 98.18 76.71 95.30
  A 1.10 1.09 -1.7 0 0 75.31 93.99
  Q 73.92 94.43 72.93 93.44
  Q 72.61 93.11 72.87 92.74
  L 73.91 91.30
  A 0.90 0.90 0.0 0 0 72.49 90.19
  L 71.02 91.96
  Q 70.61 92.44 69.98 92.39
  C 66.38 92.10 66.26 86.92 67.26 84.65
  A 1.27 1.26 -81.5 0 1 68.25 83.91
  L 75.77 82.99
  A 0.98 0.96 -15.4 0 1 76.78 83.55
  L 78.31 86.98
  A 0.30 0.30 0.0 0 0 78.88 86.81
  L 78.22 82.59
  A 0.95 0.93 68.4 0 1 78.60 81.69
  Q 80.63 80.24 81.72 78.10
  Q 82.90 75.80 83.91 74.82
  Q 85.69 73.08 87.52 71.31
  A 0.90 0.88 -56.1 0 1 88.45 71.12
  Q 90.99 72.09 93.02 70.25
  A 0.28 0.28 0.0 0 0 92.75 69.77
  L 90.51 70.41
  A 0.58 0.58 0.0 0 1 89.77 69.85
  L 89.78 67.88
  A 0.49 0.49 0.0 0 0 89.09 67.44
  L 86.81 68.49
  Q 85.69 69.01 86.47 68.05
  C 87.97 66.19 92.55 65.94 94.60 65.72
  A 1.56 1.55 56.4 0 0 95.18 62.81
  Q 91.89 60.99 90.92 57.35
  Q 90.77 56.79 90.21 56.91
  Q 89.54 57.05 89.26 57.79
  A 1.14 1.14 0.0 0 1 87.13 57.81
  Q 85.60 53.94 81.43 53.93
  A 0.61 0.61 0.0 0 0 80.82 54.53
  L 80.80 57.97
  Q 80.80 58.51 81.13 58.94
  L 81.86 59.90
  A 0.63 0.63 0.0 0 1 81.56 60.88
  Q 79.15 61.68 80.21 64.25
  A 0.67 0.67 0.0 0 1 79.87 65.11
  Q 79.08 65.48 78.28 64.67
  Q 77.79 64.18 77.64 62.82
  Q 77.58 62.29 77.11 62.05
  Q 74.28 60.62 71.38 59.37
  C 66.64 57.33 69.95 53.34 73.00 52.07
  Q 73.48 51.87 73.62 51.38
  L 73.90 50.49
  A 0.28 0.28 0.0 0 1 74.45 50.52
  L 74.75 52.51
  A 0.63 0.62 79.3 0 0 75.50 53.03
  L 78.12 52.42
  A 0.45 0.45 0.0 0 0 78.02 51.53
  Q 76.32 51.52 75.15 50.34
  Q 74.53 49.72 75.38 49.50
  L 77.28 49.02
  A 0.69 0.68 -13.6 0 0 77.78 48.21
  L 77.07 45.17
  Q 77.05 45.05 77.17 45.03
  L 80.27 44.47
  A 0.79 0.77 63.2 0 1 80.97 44.71
  Q 82.41 46.28 84.33 47.14
  Q 84.58 47.25 84.69 47.49
  L 84.94 48.08
  Q 85.12 48.50 85.51 48.73
  Q 85.66 48.81 85.77 48.91
  Q 86.27 49.38 85.61 49.22
  Q 83.91 48.84 83.15 50.32
  A 0.84 0.84 0.0 0 1 82.33 50.77
  Q 81.31 50.68 80.81 51.45
  A 0.36 0.36 0.0 0 0 81.23 51.99
  L 82.75 51.51
  Q 83.30 51.33 83.78 51.67
  L 87.14 54.10
  Q 87.68 54.48 88.15 54.02
  L 89.67 52.51
  A 0.54 0.54 0.0 0 0 89.62 51.70
  L 87.05 49.72
  Q 86.61 49.38 87.17 49.36"
/>
<path stroke="#e6e6e6" vector-effect="non-scaling-stroke" d="
  M 64.49 41.40
  Q 64.63 42.48 65.53 42.96
  Q 66.01 43.21 66.43 42.87
  Q 67.55 41.97 66.74 40.43
  Q 66.31 39.60 65.47 40.01
  L 65.15 40.16
  A 1.20 1.19 73.0 0 0 64.49 41.40"
/>
<path stroke="#e6e6e6" vector-effect="non-scaling-stroke" d="
  M 166.65 47.12
  A 0.54 0.54 0.0 0 0 166.84 48.16
  L 167.69 48.17
  A 0.44 0.44 0.0 0 0 168.03 47.45
  Q 167.49 46.81 166.65 47.12"
/>
<path stroke="#e6e6e6" vector-effect="non-scaling-stroke" d="
  M 125.67 49.76
  L 119.99 50.60
  A 0.24 0.24 0.0 0 0 119.79 50.87
  L 119.84 51.20
  A 2.61 1.47 -8.4 0 0 122.63 52.27
  L 123.62 52.13
  A 2.61 1.47 -8.4 0 0 125.99 50.29
  L 125.94 49.96
  A 0.24 0.24 0.0 0 0 125.67 49.76"
/>
<path stroke="#e6e6e6" vector-effect="non-scaling-stroke" d="
  M 133.47 63.68
  L 132.87 64.61
  A 0.48 0.47 -72.0 0 0 133.24 65.34
  L 135.87 65.50
  A 0.51 0.51 0.0 0 0 136.36 64.75
  L 133.20 58.58
  A 0.56 0.56 0.0 0 0 132.30 58.45
  C 130.81 60.03 132.82 61.40 133.50 62.62
  Q 133.80 63.16 133.47 63.68"
/>
<path stroke="#e6e6e6" vector-effect="non-scaling-stroke" d="
  M 129.2835 64.5746
  A 1.42 0.90 130.2 0 0 130.8874 64.0709
  A 1.42 0.90 130.2 0 0 131.1165 62.4054
  A 1.42 0.90 130.2 0 0 129.5126 62.9091
  A 1.42 0.90 130.2 0 0 129.2835 64.5746"
/>
<path stroke="#e6e6e6" vector-effect="non-scaling-stroke" d="
  M 94.63 67.49
  Q 94.43 68.24 95.19 68.42
  Q 96.76 68.79 98.35 68.49
  A 0.41 0.41 0.0 0 0 98.29 67.67
  Q 96.72 67.61 95.71 66.47
  Q 95.09 65.76 94.85 66.67
  L 94.63 67.49"
/>
<path stroke="#e6e6e6" vector-effect="non-scaling-stroke" d="
  M 234.37 73.14
  L 236.37 72.89
  Q 236.95 72.82 236.68 72.31
  Q 236.07 71.13 234.92 71.65
  Q 234.07 72.04 233.99 72.76
  Q 233.94 73.19 234.37 73.14"
/>
<path stroke="#e6e6e6" vector-effect="non-scaling-stroke" d="
  M 233.61 74.75
  C 232.95 80.04 229.21 77.75 227.19 80.47
  A 0.41 0.41 0.0 0 0 227.69 81.09
  C 230.57 79.81 236.03 79.68 234.12 74.69
  Q 233.74 73.70 233.61 74.75"
/>
<path stroke="#e6e6e6" vector-effect="non-scaling-stroke" d="
  M 84.30 91.07
  Q 84.11 91.03 83.92 90.96
  Q 83.41 90.80 83.78 91.19
  Q 84.83 92.28 86.29 91.85
  A 0.40 0.40 0.0 0 0 86.16 91.06
  L 84.54 91.10
  Q 84.42 91.11 84.30 91.07"
/>
<path stroke="#e6e6e6" vector-effect="non-scaling-stroke" d="
  M 223.66 100.24
  C 223.24 97.64 221.07 95.42 220.51 92.55
  Q 220.37 91.87 219.86 92.34
  Q 219.33 92.83 219.33 93.64
  Q 219.33 94.17 219.68 94.58
  Q 221.49 96.71 221.78 100.00
  Q 221.88 101.18 223.23 100.88
  Q 223.74 100.76 223.66 100.24"
/>
<path stroke="#e6e6e6" vector-effect="non-scaling-stroke" d="
  M 80.54 99.03
  L 79.98 98.87
  A 0.15 0.14 72.9 0 0 79.85 99.12
  C 81.46 100.50 81.28 102.00 80.04 103.69
  C 76.42 108.59 81.45 115.77 85.55 118.23
  A 1.06 1.01 -79.3 0 1 86.04 118.98
  Q 86.26 120.78 86.01 122.01
  Q 83.98 131.78 83.27 141.76
  Q 82.93 146.52 87.01 148.93
  A 0.64 0.64 0.0 0 0 87.73 147.87
  C 85.19 145.92 88.21 143.60 88.38 141.43
  C 88.55 139.19 89.91 136.58 91.45 135.45
  Q 97.53 130.98 101.62 124.64
  C 102.98 122.52 104.76 121.84 106.76 120.48
  A 1.43 1.41 77.0 0 0 107.35 119.52
  Q 107.99 115.07 110.82 111.58
  A 1.93 1.93 0.0 0 0 109.99 108.56
  C 106.20 107.16 103.12 106.42 100.06 103.57
  Q 93.80 97.73 85.01 97.24
  C 83.31 97.15 82.43 97.82 81.26 98.87
  Q 80.94 99.14 80.54 99.03"
/>
<path stroke="#e6e6e6" vector-effect="non-scaling-stroke" d="
  M 204.9500 100.2858
  A 1.01 0.38 67.9 0 0 204.9221 99.2070
  A 1.01 0.38 67.9 0 0 204.1900 98.4142
  A 1.01 0.38 67.9 0 0 204.2179 99.4930
  A 1.01 0.38 67.9 0 0 204.9500 100.2858"
/>
<path stroke="#e6e6e6" vector-effect="non-scaling-stroke" d="
  M 192.7004 100.8569
  A 0.95 0.62 69.0 0 0 192.9388 99.7478
  A 0.95 0.62 69.0 0 0 192.0196 99.0831
  A 0.95 0.62 69.0 0 0 191.7812 100.1922
  A 0.95 0.62 69.0 0 0 192.7004 100.8569"
/>
<path stroke="#e6e6e6" vector-effect="non-scaling-stroke" d="
  M 206.9718 103.1341
  A 1.21 0.62 69.6 0 0 207.1311 101.7839
  A 1.21 0.62 69.6 0 0 206.1282 100.8659
  A 1.21 0.62 69.6 0 0 205.9689 102.2161
  A 1.21 0.62 69.6 0 0 206.9718 103.1341"
/>
<path stroke="#e6e6e6" vector-effect="non-scaling-stroke" d="
  M 214.88 103.38
  Q 214.29 104.43 212.23 104.30
  A 0.56 0.55 -5.7 0 0 211.66 104.99
  Q 212.29 107.45 215.05 107.48
  A 3.53 2.27 85.9 0 0 217.16 103.60
  Q 217.04 102.47 217.84 101.51
  A 0.49 0.48 -86.4 0 0 217.21 100.79
  Q 215.80 101.70 214.88 103.38"
/>
<path stroke="#e6e6e6" vector-effect="non-scaling-stroke" d="
  M 206.07 104.55
  Q 204.89 103.19 203.22 102.22
  A 0.30 0.29 81.9 0 0 202.87 102.69
  C 204.60 104.37 205.38 105.34 207.19 107.76
  Q 209.57 110.92 213.89 110.93
  Q 214.41 110.93 214.05 110.56
  Q 213.82 110.32 213.49 110.34
  Q 211.45 110.46 209.97 109.72
  A 1.18 1.17 -82.9 0 1 209.36 108.93
  C 208.90 106.86 207.20 105.83 206.07 104.55"
/>
<path stroke="#e6e6e6" vector-effect="non-scaling-stroke" d="
  M 230.92 107.62
  Q 232.61 108.04 232.95 109.69
  A 0.99 0.98 12.1 0 0 233.33 110.27
  Q 234.71 111.25 236.36 110.72
  A 1.05 1.04 57.9 0 1 237.40 110.96
  L 238.73 112.19
  A 0.42 0.42 0.0 0 0 239.36 111.63
  Q 236.35 107.49 230.98 107.23
  A 0.20 0.20 0.0 0 0 230.92 107.62"
/>
<path stroke="#e6e6e6" vector-effect="non-scaling-stroke" d="
  M 233.36 117.89
  C 229.96 116.90 230.93 112.81 227.04 114.46
  C 225.04 115.31 223.38 115.82 221.59 117.26
  Q 219.06 119.29 216.02 120.53
  Q 215.54 120.72 215.28 121.17
  C 213.85 123.71 215.60 127.87 216.35 130.59
  Q 216.50 131.14 217.06 131.01
  Q 220.46 130.25 223.80 129.13
  C 228.57 127.53 231.31 130.60 234.26 133.62
  Q 234.62 133.99 235.13 134.09
  Q 238.60 134.73 240.33 132.39
  C 243.97 127.44 242.72 123.61 238.66 119.40
  C 237.06 117.75 236.49 115.73 235.17 113.83
  A 0.30 0.30 0.0 0 0 234.63 113.97
  L 234.29 117.27
  Q 234.21 118.14 233.36 117.89"
/>
<path stroke="#e6e6e6" vector-effect="non-scaling-stroke" d="
  M 167.62 123.82
  L 170.49 115.00
  A 0.12 0.12 0.0 0 0 170.41 114.84
  L 170.37 114.83
  A 4.59 2.41 -72.0 0 0 166.66 118.45
  L 166.55 118.77
  A 4.59 2.41 -72.0 0 0 167.42 123.88
  L 167.47 123.90
  A 0.12 0.12 0.0 0 0 167.62 123.82"
/>
<path stroke="#e6e6e6" vector-effect="non-scaling-stroke" d="
  M 258.39 133.88
  C 257.29 137.25 254.17 137.78 252.86 140.53
  A 0.32 0.32 0.0 0 0 253.38 140.88
  L 259.24 134.81
  Q 259.61 134.42 259.25 134.02
  L 259.00 133.75
  Q 258.59 133.29 258.39 133.88"
/>
<path stroke="#e6e6e6" vector-effect="non-scaling-stroke" d="
  M 238.5274 137.5986
  A 0.89 0.74 48.7 0 0 238.4959 136.4416
  A 0.89 0.74 48.7 0 0 237.3526 136.2614
  A 0.89 0.74 48.7 0 0 237.3841 137.4184
  A 0.89 0.74 48.7 0 0 238.5274 137.5986"
/>
<path stroke="#e6e6e6" vector-effect="non-scaling-stroke" d="
  M 77.33 30.34
  Q 78.37 30.57 79.53 29.63
  Q 80.05 29.20 79.38 29.18
  Q 78.09 29.13 77.21 29.82
  Q 76.73 30.20 77.33 30.34"
/>
<path stroke="#e6e6e6" vector-effect="non-scaling-stroke" d="
  M 171.50 71.36
  L 172.52 70.72
  A 0.79 0.79 0.0 0 0 171.93 69.28
  Q 169.90 69.69 168.38 71.08
  A 0.53 0.52 -43.1 0 0 168.35 71.84
  Q 170.10 73.70 169.98 76.27
  A 1.39 1.36 -65.4 0 0 170.33 77.24
  Q 171.13 78.12 172.34 78.05
  Q 172.90 78.02 172.93 77.46
  L 173.14 74.20
  Q 173.17 73.72 172.79 73.42
  L 171.45 72.36
  Q 170.77 71.83 171.50 71.36"
/>
<path stroke="#e6e6e6" vector-effect="non-scaling-stroke" d="
  M 159.2275 105.6043
  A 0.98 0.87 -25.1 0 0 157.9709 105.2322
  A 0.98 0.87 -25.1 0 0 157.4525 106.4357
  A 0.98 0.87 -25.1 0 0 158.7091 106.8078
  A 0.98 0.87 -25.1 0 0 159.2275 105.6043"
/>
<path stroke="#e6e6e6" vector-effect="non-scaling-stroke" d="
  M 67.66 47.46
  A 0.36 0.36 0.0 0 0 67.99 47.94
  Q 69.64 47.96 69.72 46.24
  A 0.46 0.46 0.0 0 0 69.47 45.80
  L 69.11 45.62
  Q 68.41 45.26 68.16 46.00
  L 67.66 47.46"
/>
<path stroke="#e6e6e6" vector-effect="non-scaling-stroke" d="
  M 52.30 48.42
  L 48.79 49.71
  A 0.15 0.15 0.0 0 0 48.71 49.90
  L 48.74 50.00
  A 1.88 1.49 -20.2 0 0 51.02 50.74
  L 51.28 50.65
  A 1.88 1.49 -20.2 0 0 52.53 48.60
  L 52.50 48.51
  A 0.15 0.15 0.0 0 0 52.30 48.42"
/>
<path stroke="#e6e6e6" vector-effect="non-scaling-stroke" d="
  M 56.3201 54.1102
  A 1.30 0.55 -30.5 0 0 54.9209 54.2961
  A 1.30 0.55 -30.5 0 0 54.0799 55.4298
  A 1.30 0.55 -30.5 0 0 55.4791 55.2439
  A 1.30 0.55 -30.5 0 0 56.3201 54.1102"
/>
<path stroke="#e6e6e6" vector-effect="non-scaling-stroke" d="
  M 67.4368 65.2238
  A 1.35 0.50 60.4 0 0 67.2047 63.8030
  A 1.35 0.50 60.4 0 0 66.1032 62.8762
  A 1.35 0.50 60.4 0 0 66.3353 64.2970
  A 1.35 0.50 60.4 0 0 67.4368 65.2238"
/>
<path stroke="#e6e6e6" vector-effect="non-scaling-stroke" d="
  M 74.36 69.85
  L 73.72 71.99
  A 0.99 0.54 81.3 0 0 74.68 73.26
  Q 74.97 72.56 74.80 72.03
  A 1.07 0.91 -83.0 0 1 76.21 70.74
  Q 77.50 71.82 77.16 73.39
  Q 77.06 73.88 77.55 73.81
  L 77.86 73.76
  Q 78.15 73.72 78.21 73.44
  L 78.74 70.87
  A 0.59 0.59 0.0 0 0 78.13 70.16
  Q 75.60 70.29 74.98 67.88
  A 0.65 0.65 0.0 0 0 74.12 67.44
  L 71.23 68.54
  A 0.49 0.49 0.0 0 0 71.47 69.48
  L 73.82 69.21
  A 0.50 0.50 0.0 0 1 74.36 69.85"
/>
<path stroke="#e6e6e6" vector-effect="non-scaling-stroke" d="
  M 81.59 72.20
  A 0.28 0.27 34.6 0 0 81.49 71.67
  L 80.25 71.62
  A 0.42 0.35 43.2 0 0 80.34 72.39
  Q 81.00 72.44 81.59 72.20"
/>
</g>
<path fill="#ffffff" d="
  M 0.00 0.00
  L 290.00 0.00
  L 290.00 174.00
  L 0.00 174.00
  L 0.00 0.00
  Z
  M 99.59 45.29
  L 99.78 46.14
  Q 99.92 46.73 99.32 46.80
  Q 98.64 46.89 98.32 47.29
  Q 98.05 47.62 98.13 48.19
  C 98.53 51.25 101.43 58.00 105.45 55.53
  A 0.31 0.25 -11.8 0 0 105.55 55.41
  L 107.71 50.80
  A 1.05 1.03 5.4 0 1 108.40 50.24
  Q 110.72 49.66 112.65 48.29
  C 115.36 46.38 119.26 47.20 120.08 43.36
  Q 120.17 42.98 119.82 42.82
  Q 119.54 42.68 119.46 42.67
  A 0.92 0.91 45.4 0 1 119.47 40.85
  Q 121.38 40.67 121.46 38.50
  C 121.61 34.48 120.24 30.12 125.71 28.91
  A 0.59 0.59 0.0 0 0 126.18 28.31
  Q 126.15 27.65 125.49 27.76
  C 122.31 28.30 117.78 28.90 115.38 27.39
  Q 114.51 26.85 115.53 26.91
  L 119.38 27.13
  A 0.38 0.37 60.2 0 0 119.57 26.42
  C 112.28 22.65 105.31 26.67 98.10 26.98
  Q 93.42 27.19 89.53 29.99
  A 0.74 0.74 0.0 0 0 89.22 30.48
  L 89.09 31.18
  Q 88.98 31.77 88.42 31.98
  L 85.53 33.05
  A 0.58 0.57 60.0 0 0 85.29 33.96
  L 87.25 36.38
  A 0.75 0.73 65.7 0 0 87.93 36.65
  C 94.06 35.78 95.81 38.76 98.08 43.60
  Q 98.29 44.06 97.98 44.45
  Q 97.52 45.03 97.82 45.78
  A 0.54 0.54 0.0 0 0 98.78 45.86
  L 99.17 45.22
  Q 99.46 44.75 99.59 45.29
  Z
  M 75.52 30.65
  C 71.97 31.44 71.13 27.06 67.76 30.30
  A 0.85 0.85 0.0 0 0 68.24 31.76
  Q 70.17 32.01 70.70 33.87
  A 0.58 0.58 0.0 0 0 71.49 34.24
  L 73.65 33.28
  Q 74.15 33.06 74.46 32.61
  Q 75.07 31.69 76.49 32.05
  Q 77.16 32.23 76.57 32.60
  L 75.97 32.97
  Q 75.52 33.26 75.37 33.78
  Q 75.07 34.85 73.79 34.80
  C 73.44 34.78 73.02 35.03 72.88 35.31
  Q 72.53 35.98 73.28 35.98
  L 78.66 35.98
  Q 79.23 35.98 79.51 35.48
  Q 80.10 34.40 81.30 33.97
  A 1.29 1.29 0.0 0 0 82.04 33.30
  C 82.53 32.31 82.89 31.74 83.95 31.26
  Q 87.94 29.46 91.54 27.10
  A 0.41 0.41 0.0 0 0 91.38 26.36
  Q 81.60 24.80 72.14 27.94
  A 0.39 0.39 0.0 0 0 71.88 28.31
  Q 71.88 28.70 72.21 28.96
  C 72.91 29.50 74.51 29.39 75.61 30.15
  Q 76.14 30.51 75.52 30.65
  Z
  M 207.8829 33.6886
  A 0.39 0.39 0.0 0 0 207.7207 33.1615
  L 201.3753 29.8017
  A 0.39 0.39 0.0 0 0 200.8481 29.9639
  L 200.7171 30.2114
  A 0.39 0.39 0.0 0 0 200.8793 30.7385
  L 207.2247 34.0983
  A 0.39 0.39 0.0 0 0 207.7519 33.9361
  L 207.8829 33.6886
  Z
  M 149.12 32.33
  A 1.11 1.11 0.0 0 1 150.19 31.65
  L 153.92 31.78
  A 0.53 0.53 0.0 0 0 154.07 30.74
  Q 151.29 29.97 148.60 31.04
  C 147.11 31.64 146.34 31.88 144.88 31.44
  A 0.67 0.67 0.0 0 0 144.26 32.59
  L 144.99 33.21
  A 0.41 0.41 0.0 0 0 145.57 33.14
  L 146.56 31.86
  A 0.56 0.56 0.0 0 1 147.51 32.43
  L 146.51 34.65
  A 0.52 0.52 0.0 0 0 146.56 35.16
  L 146.90 35.67
  Q 147.40 36.39 147.74 35.59
  L 149.12 32.33
  Z
  M 68.13 34.86
  L 68.85 36.33
  A 0.96 0.95 76.2 0 0 69.72 36.86
  Q 71.13 36.82 71.07 38.13
  A 0.64 0.64 0.0 0 0 71.70 38.80
  L 78.32 38.91
  Q 78.81 38.92 78.85 38.43
  L 78.88 38.00
  Q 78.93 37.34 78.27 37.38
  Q 76.01 37.51 73.75 37.72
  Q 72.79 37.80 72.36 36.60
  Q 72.19 36.13 71.69 36.11
  L 70.00 36.03
  A 0.78 0.78 0.0 0 1 69.27 35.44
  Q 68.54 32.65 65.81 33.14
  A 1.17 1.14 -31.2 0 1 64.91 32.93
  Q 63.23 31.67 61.27 32.38
  Q 60.93 32.50 61.25 32.66
  Q 63.86 33.91 66.73 33.97
  A 1.60 1.60 0.0 0 1 68.13 34.86
  Z
  M 58.6119 33.3640
  A 1.58 0.62 -29.0 0 0 56.9294 33.5877
  A 1.58 0.62 -29.0 0 0 55.8481 34.8960
  A 1.58 0.62 -29.0 0 0 57.5306 34.6723
  A 1.58 0.62 -29.0 0 0 58.6119 33.3640
  Z
  M 211.57 39.57
  Q 212.39 38.72 213.63 38.62
  A 0.95 0.95 0.0 0 0 213.82 36.76
  L 207.99 35.02
  A 0.80 0.78 -48.3 0 0 207.42 35.06
  C 204.03 36.67 200.47 37.13 197.34 38.89
  Q 193.90 40.83 190.48 42.80
  Q 190.05 43.06 189.56 42.92
  L 188.51 42.63
  Q 187.85 42.44 187.91 43.13
  L 188.18 46.29
  A 0.44 0.44 0.0 0 0 188.80 46.65
  Q 189.49 46.34 190.13 46.56
  A 0.29 0.29 0.0 0 1 190.03 47.12
  L 189.34 47.12
  Q 188.89 47.12 188.70 47.53
  Q 188.02 49.08 186.44 49.60
  A 0.48 0.48 0.0 0 1 185.93 48.82
  L 186.95 47.71
  Q 187.27 47.36 187.17 46.90
  L 186.60 44.12
  Q 186.50 43.62 186.76 43.19
  Q 187.42 42.11 186.12 41.37
  Q 185.78 41.18 185.45 41.37
  Q 182.46 43.14 183.85 46.34
  Q 184.08 46.85 183.53 46.78
  C 181.81 46.58 180.38 44.90 178.73 45.74
  C 176.28 46.98 174.00 47.25 171.24 47.18
  A 1.18 1.17 25.2 0 0 170.45 47.46
  Q 168.52 49.07 166.02 49.37
  A 1.30 1.28 16.2 0 0 165.17 49.83
  Q 163.70 51.61 161.39 51.84
  A 0.67 0.66 -21.2 0 1 160.81 51.59
  L 159.15 49.42
  Q 158.70 48.82 159.44 48.94
  L 163.66 49.60
  A 0.71 0.71 0.0 0 0 164.35 48.49
  C 163.03 46.59 159.55 45.79 157.41 44.98
  C 152.41 43.11 148.52 44.71 145.58 48.96
  Q 143.27 52.32 139.78 54.55
  Q 139.24 54.90 139.49 55.49
  L 140.69 58.30
  A 0.63 0.63 0.0 0 0 141.73 58.48
  L 142.66 57.49
  A 0.59 0.59 0.0 0 1 143.62 57.62
  L 144.96 60.21
  A 1.12 1.12 0.0 0 0 146.98 60.13
  L 148.30 57.03
  A 0.88 0.88 0.0 0 0 148.24 56.22
  C 146.94 54.11 150.38 51.76 151.64 50.14
  A 0.83 0.83 0.0 0 1 153.06 50.96
  C 152.61 52.02 151.33 52.43 150.90 53.53
  Q 150.32 55.00 151.53 55.99
  Q 151.93 56.32 152.44 56.26
  L 155.41 55.93
  A 0.45 0.45 0.0 0 1 155.60 56.81
  Q 151.92 58.07 149.90 61.44
  Q 149.57 61.99 148.93 62.07
  L 143.55 62.67
  Q 142.78 62.75 143.01 62.01
  Q 143.44 60.62 142.49 59.65
  A 0.49 0.49 0.0 0 0 141.66 60.13
  L 142.17 61.92
  Q 142.41 62.77 141.56 62.98
  Q 138.64 63.70 137.07 66.33
  A 1.39 1.36 8.8 0 1 136.20 66.95
  L 133.53 67.52
  A 0.55 0.55 0.0 0 0 133.31 68.50
  Q 134.87 69.69 135.11 71.64
  A 0.57 0.57 0.0 0 1 134.53 72.29
  L 130.41 72.20
  A 0.65 0.65 0.0 0 0 129.74 72.85
  L 129.75 76.76
  A 1.03 1.03 0.0 0 0 130.27 77.64
  C 132.41 78.85 134.21 78.08 135.54 76.00
  Q 137.79 72.47 141.99 71.66
  Q 142.57 71.55 143.00 71.95
  L 146.90 75.65
  A 0.49 0.49 0.0 0 0 147.65 75.54
  Q 147.75 75.36 147.76 75.14
  Q 147.77 74.83 147.45 74.52
  Q 145.65 72.72 143.90 71.03
  A 0.52 0.52 0.0 0 1 144.44 70.16
  Q 148.65 71.69 150.20 76.04
  Q 150.54 77.03 151.36 77.45
  A 0.42 0.42 0.0 0 0 151.97 76.99
  Q 151.36 74.24 153.93 74.40
  Q 154.35 74.43 154.52 74.05
  L 156.37 70.09
  A 0.85 0.84 29.2 0 1 157.60 69.75
  Q 159.43 70.97 160.96 69.72
  Q 161.52 69.26 161.84 69.90
  Q 162.91 71.97 165.04 73.00
  A 0.64 0.64 0.0 0 1 164.70 74.22
  L 158.97 73.67
  A 1.73 1.72 40.1 0 0 158.36 73.72
  L 154.80 74.71
  Q 154.28 74.85 154.26 75.39
  C 154.12 78.82 158.10 78.27 160.25 78.14
  Q 160.90 78.10 160.76 78.74
  L 159.96 82.20
  Q 159.85 82.71 159.41 82.43
  C 158.89 82.10 158.39 81.93 157.72 82.02
  Q 154.42 82.46 151.33 81.23
  A 0.99 0.97 -50.3 0 0 150.43 81.32
  L 149.12 82.22
  Q 148.77 82.45 148.36 82.39
  Q 144.35 81.80 142.80 78.22
  Q 142.60 77.74 142.08 77.71
  Q 140.62 77.64 139.18 77.74
  C 136.66 77.91 134.99 79.49 131.90 79.05
  Q 131.35 78.97 131.04 79.43
  C 126.95 85.34 120.81 90.07 125.76 97.98
  C 128.71 102.69 132.61 102.45 137.47 100.57
  Q 137.98 100.37 138.48 100.61
  L 142.52 102.49
  Q 142.92 102.68 142.88 103.12
  L 142.59 106.14
  Q 142.54 106.68 142.90 107.09
  Q 146.71 111.33 144.09 116.68
  A 0.62 0.59 50.3 0 0 144.06 117.12
  L 148.38 129.87
  A 0.77 0.77 0.0 0 0 148.99 130.38
  C 155.34 131.22 156.92 126.78 159.72 122.28
  Q 159.96 121.90 159.93 121.46
  Q 159.74 118.17 162.81 117.02
  A 1.71 1.71 0.0 0 0 163.89 115.08
  C 163.23 111.81 161.68 107.44 165.35 105.09
  Q 169.29 102.56 171.40 97.84
  A 0.85 0.85 0.0 0 0 170.17 96.78
  Q 168.53 97.82 166.70 97.34
  C 163.56 96.52 160.00 87.36 158.86 84.45
  Q 158.57 83.71 159.29 83.67
  A 0.47 0.46 74.0 0 1 159.71 83.91
  L 166.32 95.78
  Q 166.51 96.10 166.87 96.00
  Q 172.63 94.38 177.14 90.49
  A 1.44 1.43 -51.1 0 0 176.89 88.14
  L 175.99 87.65
  Q 175.54 87.40 175.04 87.48
  Q 170.04 88.24 169.14 83.15
  A 0.35 0.34 -73.0 0 1 169.72 82.84
  C 171.11 84.18 172.09 85.39 174.02 85.94
  Q 177.64 86.96 181.45 86.89
  A 1.31 1.27 -24.4 0 1 182.32 87.20
  L 186.25 90.52
  A 0.74 0.67 -83.3 0 1 186.47 90.83
  L 189.40 98.80
  A 0.92 0.92 0.0 0 0 191.15 98.71
  L 192.16 94.81
  Q 192.31 94.23 192.75 93.83
  L 197.80 89.29
  A 1.48 1.47 -30.2 0 1 200.18 89.91
  Q 201.03 92.43 203.15 93.96
  Q 203.53 94.23 203.63 94.69
  L 204.11 96.77
  A 0.22 0.22 0.0 0 0 204.51 96.83
  Q 205.29 95.54 206.56 96.41
  Q 207.30 96.91 208.23 98.53
  Q 208.54 99.07 209.03 98.68
  L 211.52 96.71
  A 0.82 0.81 -34.8 0 0 211.72 95.65
  L 209.56 92.01
  A 1.25 1.25 0.0 0 1 210.53 90.12
  C 216.06 89.64 222.22 86.92 219.47 80.06
  A 0.49 0.49 0.0 0 1 219.44 79.77
  L 219.69 78.25
  A 0.76 0.76 0.0 0 0 219.25 77.44
  L 218.08 76.90
  A 0.47 0.47 0.0 0 1 218.05 76.06
  Q 220.81 74.55 223.07 76.58
  A 1.39 1.39 0.0 0 1 223.49 77.29
  Q 223.90 78.94 225.14 80.05
  A 0.46 0.46 0.0 0 0 225.86 79.51
  Q 224.21 76.26 226.33 73.49
  A 1.06 1.05 -71.8 0 1 227.15 73.07
  C 231.11 72.99 233.27 68.77 234.28 65.49
  A 0.31 0.30 -41.8 0 1 234.87 65.52
  L 235.27 67.77
  A 0.32 0.32 0.0 0 0 235.89 67.78
  Q 236.32 65.65 235.24 63.77
  Q 234.98 63.33 234.47 63.23
  L 230.99 62.56
  A 0.55 0.55 0.0 0 1 230.68 61.66
  Q 235.26 56.40 242.28 57.61
  A 1.25 1.23 -61.0 0 0 243.32 57.30
  Q 246.22 54.66 250.28 54.98
  Q 250.89 55.03 250.44 55.44
  L 245.47 60.00
  Q 245.13 60.32 245.11 60.78
  L 244.98 65.22
  A 0.43 0.43 0.0 0 0 245.71 65.53
  Q 248.90 62.35 249.76 58.03
  A 1.85 1.84 4.2 0 1 251.48 56.55
  Q 256.27 56.32 260.37 53.78
  Q 260.83 53.49 260.95 52.95
  Q 261.28 51.43 262.56 50.56
  Q 263.09 50.21 263.67 50.46
  L 265.86 51.44
  Q 266.39 51.67 266.91 51.40
  L 268.31 50.68
  A 0.50 0.50 0.0 0 0 268.21 49.75
  C 265.11 48.92 262.84 46.65 259.64 45.86
  C 256.87 45.18 253.15 46.20 250.75 45.64
  Q 242.97 43.82 235.25 41.80
  Q 234.81 41.69 234.42 41.92
  Q 229.52 44.86 225.00 41.56
  Q 224.66 41.31 224.23 41.29
  Q 219.73 41.12 215.39 39.94
  C 214.07 39.58 213.09 39.95 211.77 40.00
  Q 211.13 40.02 211.57 39.57
  Z
  M 54.1363 35.3547
  A 2.48 0.51 -15.8 0 0 51.6111 35.5393
  A 2.48 0.51 -15.8 0 0 49.3637 36.7053
  A 2.48 0.51 -15.8 0 0 51.8889 36.5207
  A 2.48 0.51 -15.8 0 0 54.1363 35.3547
  Z
  M 64.98 37.97
  Q 65.83 38.37 66.74 38.11
  A 0.65 0.65 0.0 0 0 67.03 37.04
  L 65.88 35.81
  Q 65.30 35.18 64.96 35.97
  Q 64.49 37.02 63.40 37.07
  Q 62.76 37.10 63.25 37.52
  Q 63.70 37.90 64.34 37.85
  A 1.36 1.29 -32.7 0 1 64.98 37.97
  Z
  M 174.60 41.83
  C 176.57 37.73 179.70 37.68 183.62 36.84
  A 0.30 0.30 0.0 0 0 183.57 36.24
  Q 176.09 35.98 172.75 42.50
  Q 172.47 43.05 173.03 43.32
  L 174.45 44.03
  A 0.37 0.37 0.0 0 0 174.95 43.54
  L 174.60 42.81
  A 1.15 1.15 0.0 0 1 174.60 41.83
  Z
  M 54.63 36.88
  Q 54.24 37.08 53.91 37.36
  Q 53.48 37.72 54.01 37.89
  Q 57.43 38.99 60.74 38.11
  Q 62.11 37.74 60.80 37.20
  L 58.51 36.24
  A 0.37 0.37 0.0 0 0 58.11 36.85
  L 58.72 37.44
  Q 59.04 37.74 58.62 37.90
  Q 58.50 37.94 58.37 37.98
  A 0.93 0.93 0.0 0 1 57.50 37.85
  L 55.52 36.37
  Q 55.01 36.00 54.70 36.55
  Q 54.63 36.68 54.63 36.88
  Z
  M 232.61 37.39
  A 0.53 0.53 0.0 0 0 232.73 38.44
  L 236.98 38.23
  A 0.25 0.24 -35.8 0 0 237.06 37.76
  Q 234.89 36.97 232.61 37.39
  Z
  M 59.04 42.73
  L 58.55 41.92
  Q 58.34 41.58 57.94 41.61
  Q 55.89 41.77 54.43 40.64
  Q 53.99 40.30 53.44 40.17
  L 48.90 39.07
  A 0.63 0.62 13.0 0 0 48.15 39.53
  L 47.45 42.52
  A 1.04 1.03 -12.8 0 0 49.11 43.56
  C 52.36 40.94 52.95 45.39 56.44 43.51
  A 0.32 0.32 0.0 0 1 56.82 44.01
  Q 55.67 45.25 53.90 45.15
  A 0.34 0.33 86.6 0 0 53.55 45.55
  L 53.60 45.83
  A 0.43 0.42 -10.5 0 0 54.09 46.16
  Q 55.36 45.92 56.37 46.62
  Q 56.87 46.97 57.39 46.64
  Q 59.09 45.54 60.64 46.71
  A 0.24 0.24 0.0 0 0 61.02 46.53
  L 61.03 46.00
  A 0.36 0.35 -59.3 0 1 61.69 45.83
  L 62.10 46.54
  Q 62.35 46.96 62.69 46.61
  L 63.72 45.55
  A 0.59 0.58 30.1 0 0 63.46 44.58
  Q 60.48 43.73 61.62 40.82
  A 0.41 0.41 0.0 0 0 61.07 40.30
  Q 59.65 40.95 59.64 42.56
  A 0.33 0.32 -60.7 0 1 59.04 42.73
  Z
  M 87.17 49.36
  Q 88.60 49.29 89.67 50.30
  A 0.87 0.86 54.4 0 0 90.61 50.46
  L 91.64 50.01
  A 0.47 0.47 0.0 0 0 91.77 49.23
  C 90.54 48.11 89.21 47.60 88.13 46.28
  Q 86.11 43.79 82.96 42.65
  A 2.56 2.50 -9.4 0 1 81.93 41.93
  Q 79.80 39.45 76.31 40.35
  Q 75.83 40.48 75.80 40.98
  L 75.66 43.48
  A 0.37 0.37 0.0 0 1 74.93 43.51
  L 74.55 40.82
  A 0.60 0.60 0.0 0 0 73.59 40.44
  L 72.57 41.24
  Q 72.10 41.61 72.25 42.20
  Q 72.87 44.68 75.07 45.05
  Q 75.68 45.16 75.55 45.76
  L 74.95 48.59
  A 0.48 0.48 0.0 0 1 74.07 48.73
  L 72.83 46.58
  A 0.72 0.71 -17.6 0 0 72.13 46.22
  Q 70.25 46.42 70.53 44.53
  Q 70.60 44.04 70.21 43.74
  L 69.14 42.90
  A 0.55 0.54 49.5 0 1 69.21 41.99
  L 71.25 40.88
  A 0.37 0.36 -49.6 0 0 71.20 40.21
  L 69.46 39.63
  Q 68.92 39.45 68.66 39.95
  Q 68.18 40.88 68.62 41.88
  A 0.65 0.61 -49.4 0 1 68.64 42.34
  L 67.78 44.92
  Q 67.66 45.30 67.28 45.43
  L 66.14 45.84
  A 0.52 0.51 55.0 0 0 65.99 46.73
  Q 66.44 47.10 66.37 47.44
  Q 66.27 47.89 65.50 48.00
  Q 63.53 48.28 61.86 47.18
  Q 61.44 46.91 61.00 47.14
  Q 59.03 48.20 56.87 48.10
  Q 55.74 48.05 53.66 46.81
  C 51.62 45.59 48.83 45.59 46.73 45.36
  Q 44.96 45.17 43.32 45.60
  C 35.84 47.59 24.65 40.39 19.05 46.92
  Q 17.98 48.17 19.62 48.26
  Q 21.11 48.34 21.53 49.65
  A 0.50 0.50 0.0 0 1 20.79 50.23
  Q 19.95 49.73 18.99 49.66
  A 0.99 0.99 0.0 0 0 18.66 51.61
  Q 19.94 51.96 20.95 51.17
  Q 21.51 50.74 21.72 51.42
  L 21.98 52.26
  Q 22.21 52.99 21.47 53.16
  L 19.82 53.53
  A 1.58 1.57 -40.7 0 0 19.59 56.53
  L 23.67 58.11
  Q 24.21 58.32 24.56 58.78
  Q 25.20 59.63 26.28 59.40
  A 1.05 1.03 2.4 0 0 27.05 58.70
  L 27.40 57.58
  Q 27.54 57.13 28.00 57.00
  C 37.07 54.40 42.15 59.64 46.65 66.51
  C 49.37 70.67 46.91 76.01 51.39 79.86
  C 55.07 83.02 58.55 85.88 61.27 89.96
  Q 63.45 93.22 67.51 93.83
  C 70.26 94.24 71.84 95.32 74.32 96.09
  Q 74.82 96.25 75.00 96.74
  C 75.40 97.83 76.84 100.03 78.24 99.80
  Q 78.49 99.76 78.66 99.65
  Q 79.12 99.36 78.61 99.17
  Q 75.99 98.18 76.71 95.30
  A 1.10 1.09 -1.7 0 0 75.31 93.99
  Q 73.92 94.43 72.93 93.44
  Q 72.61 93.11 72.87 92.74
  L 73.91 91.30
  A 0.90 0.90 0.0 0 0 72.49 90.19
  L 71.02 91.96
  Q 70.61 92.44 69.98 92.39
  C 66.38 92.10 66.26 86.92 67.26 84.65
  A 1.27 1.26 -81.5 0 1 68.25 83.91
  L 75.77 82.99
  A 0.98 0.96 -15.4 0 1 76.78 83.55
  L 78.31 86.98
  A 0.30 0.30 0.0 0 0 78.88 86.81
  L 78.22 82.59
  A 0.95 0.93 68.4 0 1 78.60 81.69
  Q 80.63 80.24 81.72 78.10
  Q 82.90 75.80 83.91 74.82
  Q 85.69 73.08 87.52 71.31
  A 0.90 0.88 -56.1 0 1 88.45 71.12
  Q 90.99 72.09 93.02 70.25
  A 0.28 0.28 0.0 0 0 92.75 69.77
  L 90.51 70.41
  A 0.58 0.58 0.0 0 1 89.77 69.85
  L 89.78 67.88
  A 0.49 0.49 0.0 0 0 89.09 67.44
  L 86.81 68.49
  Q 85.69 69.01 86.47 68.05
  C 87.97 66.19 92.55 65.94 94.60 65.72
  A 1.56 1.55 56.4 0 0 95.18 62.81
  Q 91.89 60.99 90.92 57.35
  Q 90.77 56.79 90.21 56.91
  Q 89.54 57.05 89.26 57.79
  A 1.14 1.14 0.0 0 1 87.13 57.81
  Q 85.60 53.94 81.43 53.93
  A 0.61 0.61 0.0 0 0 80.82 54.53
  L 80.80 57.97
  Q 80.80 58.51 81.13 58.94
  L 81.86 59.90
  A 0.63 0.63 0.0 0 1 81.56 60.88
  Q 79.15 61.68 80.21 64.25
  A 0.67 0.67 0.0 0 1 79.87 65.11
  Q 79.08 65.48 78.28 64.67
  Q 77.79 64.18 77.64 62.82
  Q 77.58 62.29 77.11 62.05
  Q 74.28 60.62 71.38 59.37
  C 66.64 57.33 69.95 53.34 73.00 52.07
  Q 73.48 51.87 73.62 51.38
  L 73.90 50.49
  A 0.28 0.28 0.0 0 1 74.45 50.52
  L 74.75 52.51
  A 0.63 0.62 79.3 0 0 75.50 53.03
  L 78.12 52.42
  A 0.45 0.45 0.0 0 0 78.02 51.53
  Q 76.32 51.52 75.15 50.34
  Q 74.53 49.72 75.38 49.50
  L 77.28 49.02
  A 0.69 0.68 -13.6 0 0 77.78 48.21
  L 77.07 45.17
  Q 77.05 45.05 77.17 45.03
  L 80.27 44.47
  A 0.79 0.77 63.2 0 1 80.97 44.71
  Q 82.41 46.28 84.33 47.14
  Q 84.58 47.25 84.69 47.49
  L 84.94 48.08
  Q 85.12 48.50 85.51 48.73
  Q 85.66 48.81 85.77 48.91
  Q 86.27 49.38 85.61 49.22
  Q 83.91 48.84 83.15 50.32
  A 0.84 0.84 0.0 0 1 82.33 50.77
  Q 81.31 50.68 80.81 51.45
  A 0.36 0.36 0.0 0 0 81.23 51.99
  L 82.75 51.51
  Q 83.30 51.33 83.78 51.67
  L 87.14 54.10
  Q 87.68 54.48 88.15 54.02
  L 89.67 52.51
  A 0.54 0.54 0.0 0 0 89.62 51.70
  L 87.05 49.72
  Q 86.61 49.38 87.17 49.36
  Z
  M 64.49 41.40
  Q 64.63 42.48 65.53 42.96
  Q 66.01 43.21 66.43 42.87
  Q 67.55 41.97 66.74 40.43
  Q 66.31 39.60 65.47 40.01
  L 65.15 40.16
  A 1.20 1.19 73.0 0 0 64.49 41.40
  Z
  M 166.65 47.12
  A 0.54 0.54 0.0 0 0 166.84 48.16
  L 167.69 48.17
  A 0.44 0.44 0.0 0 0 168.03 47.45
  Q 167.49 46.81 166.65 47.12
  Z
  M 125.67 49.76
  L 119.99 50.60
  A 0.24 0.24 0.0 0 0 119.79 50.87
  L 119.84 51.20
  A 2.61 1.47 -8.4 0 0 122.63 52.27
  L 123.62 52.13
  A 2.61 1.47 -8.4 0 0 125.99 50.29
  L 125.94 49.96
  A 0.24 0.24 0.0 0 0 125.67 49.76
  Z
  M 133.47 63.68
  L 132.87 64.61
  A 0.48 0.47 -72.0 0 0 133.24 65.34
  L 135.87 65.50
  A 0.51 0.51 0.0 0 0 136.36 64.75
  L 133.20 58.58
  A 0.56 0.56 0.0 0 0 132.30 58.45
  C 130.81 60.03 132.82 61.40 133.50 62.62
  Q 133.80 63.16 133.47 63.68
  Z
  M 129.2835 64.5746
  A 1.42 0.90 130.2 0 0 130.8874 64.0709
  A 1.42 0.90 130.2 0 0 131.1165 62.4054
  A 1.42 0.90 130.2 0 0 129.5126 62.9091
  A 1.42 0.90 130.2 0 0 129.2835 64.5746
  Z
  M 94.63 67.49
  Q 94.43 68.24 95.19 68.42
  Q 96.76 68.79 98.35 68.49
  A 0.41 0.41 0.0 0 0 98.29 67.67
  Q 96.72 67.61 95.71 66.47
  Q 95.09 65.76 94.85 66.67
  L 94.63 67.49
  Z
  M 234.37 73.14
  L 236.37 72.89
  Q 236.95 72.82 236.68 72.31
  Q 236.07 71.13 234.92 71.65
  Q 234.07 72.04 233.99 72.76
  Q 233.94 73.19 234.37 73.14
  Z
  M 233.61 74.75
  C 232.95 80.04 229.21 77.75 227.19 80.47
  A 0.41 0.41 0.0 0 0 227.69 81.09
  C 230.57 79.81 236.03 79.68 234.12 74.69
  Q 233.74 73.70 233.61 74.75
  Z
  M 84.30 91.07
  Q 84.11 91.03 83.92 90.96
  Q 83.41 90.80 83.78 91.19
  Q 84.83 92.28 86.29 91.85
  A 0.40 0.40 0.0 0 0 86.16 91.06
  L 84.54 91.10
  Q 84.42 91.11 84.30 91.07
  Z
  M 223.66 100.24
  C 223.24 97.64 221.07 95.42 220.51 92.55
  Q 220.37 91.87 219.86 92.34
  Q 219.33 92.83 219.33 93.64
  Q 219.33 94.17 219.68 94.58
  Q 221.49 96.71 221.78 100.00
  Q 221.88 101.18 223.23 100.88
  Q 223.74 100.76 223.66 100.24
  Z
  M 80.54 99.03
  L 79.98 98.87
  A 0.15 0.14 72.9 0 0 79.85 99.12
  C 81.46 100.50 81.28 102.00 80.04 103.69
  C 76.42 108.59 81.45 115.77 85.55 118.23
  A 1.06 1.01 -79.3 0 1 86.04 118.98
  Q 86.26 120.78 86.01 122.01
  Q 83.98 131.78 83.27 141.76
  Q 82.93 146.52 87.01 148.93
  A 0.64 0.64 0.0 0 0 87.73 147.87
  C 85.19 145.92 88.21 143.60 88.38 141.43
  C 88.55 139.19 89.91 136.58 91.45 135.45
  Q 97.53 130.98 101.62 124.64
  C 102.98 122.52 104.76 121.84 106.76 120.48
  A 1.43 1.41 77.0 0 0 107.35 119.52
  Q 107.99 115.07 110.82 111.58
  A 1.93 1.93 0.0 0 0 109.99 108.56
  C 106.20 107.16 103.12 106.42 100.06 103.57
  Q 93.80 97.73 85.01 97.24
  C 83.31 97.15 82.43 97.82 81.26 98.87
  Q 80.94 99.14 80.54 99.03
  Z
  M 204.9500 100.2858
  A 1.01 0.38 67.9 0 0 204.9221 99.2070
  A 1.01 0.38 67.9 0 0 204.1900 98.4142
  A 1.01 0.38 67.9 0 0 204.2179 99.4930
  A 1.01 0.38 67.9 0 0 204.9500 100.2858
  Z
  M 192.7004 100.8569
  A 0.95 0.62 69.0 0 0 192.9388 99.7478
  A 0.95 0.62 69.0 0 0 192.0196 99.0831
  A 0.95 0.62 69.0 0 0 191.7812 100.1922
  A 0.95 0.62 69.0 0 0 192.7004 100.8569
  Z
  M 206.9718 103.1341
  A 1.21 0.62 69.6 0 0 207.1311 101.7839
  A 1.21 0.62 69.6 0 0 206.1282 100.8659
  A 1.21 0.62 69.6 0 0 205.9689 102.2161
  A 1.21 0.62 69.6 0 0 206.9718 103.1341
  Z
  M 214.88 103.38
  Q 214.29 104.43 212.23 104.30
  A 0.56 0.55 -5.7 0 0 211.66 104.99
  Q 212.29 107.45 215.05 107.48
  A 3.53 2.27 85.9 0 0 217.16 103.60
  Q 217.04 102.47 217.84 101.51
  A 0.49 0.48 -86.4 0 0 217.21 100.79
  Q 215.80 101.70 214.88 103.38
  Z
  M 206.07 104.55
  Q 204.89 103.19 203.22 102.22
  A 0.30 0.29 81.9 0 0 202.87 102.69
  C 204.60 104.37 205.38 105.34 207.19 107.76
  Q 209.57 110.92 213.89 110.93
  Q 214.41 110.93 214.05 110.56
  Q 213.82 110.32 213.49 110.34
  Q 211.45 110.46 209.97 109.72
  A 1.18 1.17 -82.9 0 1 209.36 108.93
  C 208.90 106.86 207.20 105.83 206.07 104.55
  Z
  M 230.92 107.62
  Q 232.61 108.04 232.95 109.69
  A 0.99 0.98 12.1 0 0 233.33 110.27
  Q 234.71 111.25 236.36 110.72
  A 1.05 1.04 57.9 0 1 237.40 110.96
  L 238.73 112.19
  A 0.42 0.42 0.0 0 0 239.36 111.63
  Q 236.35 107.49 230.98 107.23
  A 0.20 0.20 0.0 0 0 230.92 107.62
  Z
  M 233.36 117.89
  C 229.96 116.90 230.93 112.81 227.04 114.46
  C 225.04 115.31 223.38 115.82 221.59 117.26
  Q 219.06 119.29 216.02 120.53
  Q 215.54 120.72 215.28 121.17
  C 213.85 123.71 215.60 127.87 216.35 130.59
  Q 216.50 131.14 217.06 131.01
  Q 220.46 130.25 223.80 129.13
  C 228.57 127.53 231.31 130.60 234.26 133.62
  Q 234.62 133.99 235.13 134.09
  Q 238.60 134.73 240.33 132.39
  C 243.97 127.44 242.72 123.61 238.66 119.40
  C 237.06 117.75 236.49 115.73 235.17 113.83
  A 0.30 0.30 0.0 0 0 234.63 113.97
  L 234.29 117.27
  Q 234.21 118.14 233.36 117.89
  Z
  M 167.62 123.82
  L 170.49 115.00
  A 0.12 0.12 0.0 0 0 170.41 114.84
  L 170.37 114.83
  A 4.59 2.41 -72.0 0 0 166.66 118.45
  L 166.55 118.77
  A 4.59 2.41 -72.0 0 0 167.42 123.88
  L 167.47 123.90
  A 0.12 0.12 0.0 0 0 167.62 123.82
  Z
  M 258.39 133.88
  C 257.29 137.25 254.17 137.78 252.86 140.53
  A 0.32 0.32 0.0 0 0 253.38 140.88
  L 259.24 134.81
  Q 259.61 134.42 259.25 134.02
  L 259.00 133.75
  Q 258.59 133.29 258.39 133.88
  Z
  M 238.5274 137.5986
  A 0.89 0.74 48.7 0 0 238.4959 136.4416
  A 0.89 0.74 48.7 0 0 237.3526 136.2614
  A 0.89 0.74 48.7 0 0 237.3841 137.4184
  A 0.89 0.74 48.7 0 0 238.5274 137.5986
  Z"
/>
<path fill="#cdcdcd" d="
  M 99.17 45.22
  L 98.78 45.86
  A 0.54 0.54 0.0 0 1 97.82 45.78
  Q 97.52 45.03 97.98 44.45
  Q 98.29 44.06 98.08 43.60
  C 95.81 38.76 94.06 35.78 87.93 36.65
  A 0.75 0.73 65.7 0 1 87.25 36.38
  L 85.29 33.96
  A 0.58 0.57 60.0 0 1 85.53 33.05
  L 88.42 31.98
  Q 88.98 31.77 89.09 31.18
  L 89.22 30.48
  A 0.74 0.74 0.0 0 1 89.53 29.99
  Q 93.42 27.19 98.10 26.98
  C 105.31 26.67 112.28 22.65 119.57 26.42
  A 0.38 0.37 60.2 0 1 119.38 27.13
  L 115.53 26.91
  Q 114.51 26.85 115.38 27.39
  C 117.78 28.90 122.31 28.30 125.49 27.76
  Q 126.15 27.65 126.18 28.31
  A 0.59 0.59 0.0 0 1 125.71 28.91
  C 120.24 30.12 121.61 34.48 121.46 38.50
  Q 121.38 40.67 119.47 40.85
  A 0.92 0.91 45.4 0 0 119.46 42.67
  Q 119.54 42.68 119.82 42.82
  Q 120.17 42.98 120.08 43.36
  C 119.26 47.20 115.36 46.38 112.65 48.29
  Q 110.72 49.66 108.40 50.24
  A 1.05 1.03 5.4 0 0 107.71 50.80
  L 105.55 55.41
  A 0.31 0.25 -11.8 0 1 105.45 55.53
  C 101.43 58.00 98.53 51.25 98.13 48.19
  Q 98.05 47.62 98.32 47.29
  Q 98.64 46.89 99.32 46.80
  Q 99.92 46.73 99.78 46.14
  L 99.59 45.29
  Q 99.46 44.75 99.17 45.22
  Z"
/>
<path fill="#cdcdcd" d="
  M 75.61 30.15
  C 74.51 29.39 72.91 29.50 72.21 28.96
  Q 71.88 28.70 71.88 28.31
  A 0.39 0.39 0.0 0 1 72.14 27.94
  Q 81.60 24.80 91.38 26.36
  A 0.41 0.41 0.0 0 1 91.54 27.10
  Q 87.94 29.46 83.95 31.26
  C 82.89 31.74 82.53 32.31 82.04 33.30
  A 1.29 1.29 0.0 0 1 81.30 33.97
  Q 80.10 34.40 79.51 35.48
  Q 79.23 35.98 78.66 35.98
  L 73.28 35.98
  Q 72.53 35.98 72.88 35.31
  C 73.02 35.03 73.44 34.78 73.79 34.80
  Q 75.07 34.85 75.37 33.78
  Q 75.52 33.26 75.97 32.97
  L 76.57 32.60
  Q 77.16 32.23 76.49 32.05
  Q 75.07 31.69 74.46 32.61
  Q 74.15 33.06 73.65 33.28
  L 71.49 34.24
  A 0.58 0.58 0.0 0 1 70.70 33.87
  Q 70.17 32.01 68.24 31.76
  A 0.85 0.85 0.0 0 1 67.76 30.30
  C 71.13 27.06 71.97 31.44 75.52 30.65
  Q 76.14 30.51 75.61 30.15
  Z
  M 77.33 30.34
  Q 78.37 30.57 79.53 29.63
  Q 80.05 29.20 79.38 29.18
  Q 78.09 29.13 77.21 29.82
  Q 76.73 30.20 77.33 30.34
  Z"
/>
<path fill="#ffffff" d="
  M 77.21 29.82
  Q 78.09 29.13 79.38 29.18
  Q 80.05 29.20 79.53 29.63
  Q 78.37 30.57 77.33 30.34
  Q 76.73 30.20 77.21 29.82
  Z"
/>
<rect fill="#cdcdcd" x="-3.98" y="-0.53" transform="translate(204.30,31.95) rotate(27.9)" width="7.96" height="1.06" rx="0.39"/>
<path fill="#cdcdcd" d="
  M 149.12 32.33
  L 147.74 35.59
  Q 147.40 36.39 146.90 35.67
  L 146.56 35.16
  A 0.52 0.52 0.0 0 1 146.51 34.65
  L 147.51 32.43
  A 0.56 0.56 0.0 0 0 146.56 31.86
  L 145.57 33.14
  A 0.41 0.41 0.0 0 1 144.99 33.21
  L 144.26 32.59
  A 0.67 0.67 0.0 0 1 144.88 31.44
  C 146.34 31.88 147.11 31.64 148.60 31.04
  Q 151.29 29.97 154.07 30.74
  A 0.53 0.53 0.0 0 1 153.92 31.78
  L 150.19 31.65
  A 1.11 1.11 0.0 0 0 149.12 32.33
  Z"
/>
<path fill="#cdcdcd" d="
  M 68.13 34.86
  A 1.60 1.60 0.0 0 0 66.73 33.97
  Q 63.86 33.91 61.25 32.66
  Q 60.93 32.50 61.27 32.38
  Q 63.23 31.67 64.91 32.93
  A 1.17 1.14 -31.2 0 0 65.81 33.14
  Q 68.54 32.65 69.27 35.44
  A 0.78 0.78 0.0 0 0 70.00 36.03
  L 71.69 36.11
  Q 72.19 36.13 72.36 36.60
  Q 72.79 37.80 73.75 37.72
  Q 76.01 37.51 78.27 37.38
  Q 78.93 37.34 78.88 38.00
  L 78.85 38.43
  Q 78.81 38.92 78.32 38.91
  L 71.70 38.80
  A 0.64 0.64 0.0 0 1 71.07 38.13
  Q 71.13 36.82 69.72 36.86
  A 0.96 0.95 76.2 0 1 68.85 36.33
  L 68.13 34.86
  Z"
/>
<ellipse fill="#cdcdcd" cx="0.00" cy="0.00" transform="translate(57.23,34.13) rotate(-29.0)" rx="1.58" ry="0.62"/>
<path fill="#cdcdcd" d="
  M 211.77 40.00
  C 213.09 39.95 214.07 39.58 215.39 39.94
  Q 219.73 41.12 224.23 41.29
  Q 224.66 41.31 225.00 41.56
  Q 229.52 44.86 234.42 41.92
  Q 234.81 41.69 235.25 41.80
  Q 242.97 43.82 250.75 45.64
  C 253.15 46.20 256.87 45.18 259.64 45.86
  C 262.84 46.65 265.11 48.92 268.21 49.75
  A 0.50 0.50 0.0 0 1 268.31 50.68
  L 266.91 51.40
  Q 266.39 51.67 265.86 51.44
  L 263.67 50.46
  Q 263.09 50.21 262.56 50.56
  Q 261.28 51.43 260.95 52.95
  Q 260.83 53.49 260.37 53.78
  Q 256.27 56.32 251.48 56.55
  A 1.85 1.84 4.2 0 0 249.76 58.03
  Q 248.90 62.35 245.71 65.53
  A 0.43 0.43 0.0 0 1 244.98 65.22
  L 245.11 60.78
  Q 245.13 60.32 245.47 60.00
  L 250.44 55.44
  Q 250.89 55.03 250.28 54.98
  Q 246.22 54.66 243.32 57.30
  A 1.25 1.23 -61.0 0 1 242.28 57.61
  Q 235.26 56.40 230.68 61.66
  A 0.55 0.55 0.0 0 0 230.99 62.56
  L 234.47 63.23
  Q 234.98 63.33 235.24 63.77
  Q 236.32 65.65 235.89 67.78
  A 0.32 0.32 0.0 0 1 235.27 67.77
  L 234.87 65.52
  A 0.31 0.30 -41.8 0 0 234.28 65.49
  C 233.27 68.77 231.11 72.99 227.15 73.07
  A 1.06 1.05 -71.8 0 0 226.33 73.49
  Q 224.21 76.26 225.86 79.51
  A 0.46 0.46 0.0 0 1 225.14 80.05
  Q 223.90 78.94 223.49 77.29
  A 1.39 1.39 0.0 0 0 223.07 76.58
  Q 220.81 74.55 218.05 76.06
  A 0.47 0.47 0.0 0 0 218.08 76.90
  L 219.25 77.44
  A 0.76 0.76 0.0 0 1 219.69 78.25
  L 219.44 79.77
  A 0.49 0.49 0.0 0 0 219.47 80.06
  C 222.22 86.92 216.06 89.64 210.53 90.12
  A 1.25 1.25 0.0 0 0 209.56 92.01
  L 211.72 95.65
  A 0.82 0.81 -34.8 0 1 211.52 96.71
  L 209.03 98.68
  Q 208.54 99.07 208.23 98.53
  Q 207.30 96.91 206.56 96.41
  Q 205.29 95.54 204.51 96.83
  A 0.22 0.22 0.0 0 1 204.11 96.77
  L 203.63 94.69
  Q 203.53 94.23 203.15 93.96
  Q 201.03 92.43 200.18 89.91
  A 1.48 1.47 -30.2 0 0 197.80 89.29
  L 192.75 93.83
  Q 192.31 94.23 192.16 94.81
  L 191.15 98.71
  A 0.92 0.92 0.0 0 1 189.40 98.80
  L 186.47 90.83
  A 0.74 0.67 -83.3 0 0 186.25 90.52
  L 182.32 87.20
  A 1.31 1.27 -24.4 0 0 181.45 86.89
  Q 177.64 86.96 174.02 85.94
  C 172.09 85.39 171.11 84.18 169.72 82.84
  A 0.35 0.34 -73.0 0 0 169.14 83.15
  Q 170.04 88.24 175.04 87.48
  Q 175.54 87.40 175.99 87.65
  L 176.89 88.14
  A 1.44 1.43 -51.1 0 1 177.14 90.49
  Q 172.63 94.38 166.87 96.00
  Q 166.51 96.10 166.32 95.78
  L 159.71 83.91
  A 0.47 0.46 74.0 0 0 159.29 83.67
  Q 158.57 83.71 158.86 84.45
  C 160.00 87.36 163.56 96.52 166.70 97.34
  Q 168.53 97.82 170.17 96.78
  A 0.85 0.85 0.0 0 1 171.40 97.84
  Q 169.29 102.56 165.35 105.09
  C 161.68 107.44 163.23 111.81 163.89 115.08
  A 1.71 1.71 0.0 0 1 162.81 117.02
  Q 159.74 118.17 159.93 121.46
  Q 159.96 121.90 159.72 122.28
  C 156.92 126.78 155.34 131.22 148.99 130.38
  A 0.77 0.77 0.0 0 1 148.38 129.87
  L 144.06 117.12
  A 0.62 0.59 50.3 0 1 144.09 116.68
  Q 146.71 111.33 142.90 107.09
  Q 142.54 106.68 142.59 106.14
  L 142.88 103.12
  Q 142.92 102.68 142.52 102.49
  L 138.48 100.61
  Q 137.98 100.37 137.47 100.57
  C 132.61 102.45 128.71 102.69 125.76 97.98
  C 120.81 90.07 126.95 85.34 131.04 79.43
  Q 131.35 78.97 131.90 79.05
  C 134.99 79.49 136.66 77.91 139.18 77.74
  Q 140.62 77.64 142.08 77.71
  Q 142.60 77.74 142.80 78.22
  Q 144.35 81.80 148.36 82.39
  Q 148.77 82.45 149.12 82.22
  L 150.43 81.32
  A 0.99 0.97 -50.3 0 1 151.33 81.23
  Q 154.42 82.46 157.72 82.02
  C 158.39 81.93 158.89 82.10 159.41 82.43
  Q 159.85 82.71 159.96 82.20
  L 160.76 78.74
  Q 160.90 78.10 160.25 78.14
  C 158.10 78.27 154.12 78.82 154.26 75.39
  Q 154.28 74.85 154.80 74.71
  L 158.36 73.72
  A 1.73 1.72 40.1 0 1 158.97 73.67
  L 164.70 74.22
  A 0.64 0.64 0.0 0 0 165.04 73.00
  Q 162.91 71.97 161.84 69.90
  Q 161.52 69.26 160.96 69.72
  Q 159.43 70.97 157.60 69.75
  A 0.85 0.84 29.2 0 0 156.37 70.09
  L 154.52 74.05
  Q 154.35 74.43 153.93 74.40
  Q 151.36 74.24 151.97 76.99
  A 0.42 0.42 0.0 0 1 151.36 77.45
  Q 150.54 77.03 150.20 76.04
  Q 148.65 71.69 144.44 70.16
  A 0.52 0.52 0.0 0 0 143.90 71.03
  Q 145.65 72.72 147.45 74.52
  Q 147.77 74.83 147.76 75.14
  Q 147.75 75.36 147.65 75.54
  A 0.49 0.49 0.0 0 1 146.90 75.65
  L 143.00 71.95
  Q 142.57 71.55 141.99 71.66
  Q 137.79 72.47 135.54 76.00
  C 134.21 78.08 132.41 78.85 130.27 77.64
  A 1.03 1.03 0.0 0 1 129.75 76.76
  L 129.74 72.85
  A 0.65 0.65 0.0 0 1 130.41 72.20
  L 134.53 72.29
  A 0.57 0.57 0.0 0 0 135.11 71.64
  Q 134.87 69.69 133.31 68.50
  A 0.55 0.55 0.0 0 1 133.53 67.52
  L 136.20 66.95
  A 1.39 1.36 8.8 0 0 137.07 66.33
  Q 138.64 63.70 141.56 62.98
  Q 142.41 62.77 142.17 61.92
  L 141.66 60.13
  A 0.49 0.49 0.0 0 1 142.49 59.65
  Q 143.44 60.62 143.01 62.01
  Q 142.78 62.75 143.55 62.67
  L 148.93 62.07
  Q 149.57 61.99 149.90 61.44
  Q 151.92 58.07 155.60 56.81
  A 0.45 0.45 0.0 0 0 155.41 55.93
  L 152.44 56.26
  Q 151.93 56.32 151.53 55.99
  Q 150.32 55.00 150.90 53.53
  C 151.33 52.43 152.61 52.02 153.06 50.96
  A 0.83 0.83 0.0 0 0 151.64 50.14
  C 150.38 51.76 146.94 54.11 148.24 56.22
  A 0.88 0.88 0.0 0 1 148.30 57.03
  L 146.98 60.13
  A 1.12 1.12 0.0 0 1 144.96 60.21
  L 143.62 57.62
  A 0.59 0.59 0.0 0 0 142.66 57.49
  L 141.73 58.48
  A 0.63 0.63 0.0 0 1 140.69 58.30
  L 139.49 55.49
  Q 139.24 54.90 139.78 54.55
  Q 143.27 52.32 145.58 48.96
  C 148.52 44.71 152.41 43.11 157.41 44.98
  C 159.55 45.79 163.03 46.59 164.35 48.49
  A 0.71 0.71 0.0 0 1 163.66 49.60
  L 159.44 48.94
  Q 158.70 48.82 159.15 49.42
  L 160.81 51.59
  A 0.67 0.66 -21.2 0 0 161.39 51.84
  Q 163.70 51.61 165.17 49.83
  A 1.30 1.28 16.2 0 1 166.02 49.37
  Q 168.52 49.07 170.45 47.46
  A 1.18 1.17 25.2 0 1 171.24 47.18
  C 174.00 47.25 176.28 46.98 178.73 45.74
  C 180.38 44.90 181.81 46.58 183.53 46.78
  Q 184.08 46.85 183.85 46.34
  Q 182.46 43.14 185.45 41.37
  Q 185.78 41.18 186.12 41.37
  Q 187.42 42.11 186.76 43.19
  Q 186.50 43.62 186.60 44.12
  L 187.17 46.90
  Q 187.27 47.36 186.95 47.71
  L 185.93 48.82
  A 0.48 0.48 0.0 0 0 186.44 49.60
  Q 188.02 49.08 188.70 47.53
  Q 188.89 47.12 189.34 47.12
  L 190.03 47.12
  A 0.29 0.29 0.0 0 0 190.13 46.56
  Q 189.49 46.34 188.80 46.65
  A 0.44 0.44 0.0 0 1 188.18 46.29
  L 187.91 43.13
  Q 187.85 42.44 188.51 42.63
  L 189.56 42.92
  Q 190.05 43.06 190.48 42.80
  Q 193.90 40.83 197.34 38.89
  C 200.47 37.13 204.03 36.67 207.42 35.06
  A 0.80 0.78 -48.3 0 1 207.99 35.02
  L 213.82 36.76
  A 0.95 0.95 0.0 0 1 213.63 38.62
  Q 212.39 38.72 211.57 39.57
  Q 211.13 40.02 211.77 40.00
  Z
  M 171.50 71.36
  L 172.52 70.72
  A 0.79 0.79 0.0 0 0 171.93 69.28
  Q 169.90 69.69 168.38 71.08
  A 0.53 0.52 -43.1 0 0 168.35 71.84
  Q 170.10 73.70 169.98 76.27
  A 1.39 1.36 -65.4 0 0 170.33 77.24
  Q 171.13 78.12 172.34 78.05
  Q 172.90 78.02 172.93 77.46
  L 173.14 74.20
  Q 173.17 73.72 172.79 73.42
  L 171.45 72.36
  Q 170.77 71.83 171.50 71.36
  Z
  M 159.2275 105.6043
  A 0.98 0.87 -25.1 0 0 157.9709 105.2322
  A 0.98 0.87 -25.1 0 0 157.4525 106.4357
  A 0.98 0.87 -25.1 0 0 158.7091 106.8078
  A 0.98 0.87 -25.1 0 0 159.2275 105.6043
  Z"
/>
<ellipse fill="#cdcdcd" cx="0.00" cy="0.00" transform="translate(51.75,36.03) rotate(-15.8)" rx="2.48" ry="0.51"/>
<path fill="#cdcdcd" d="
  M 64.34 37.85
  Q 63.70 37.90 63.25 37.52
  Q 62.76 37.10 63.40 37.07
  Q 64.49 37.02 64.96 35.97
  Q 65.30 35.18 65.88 35.81
  L 67.03 37.04
  A 0.65 0.65 0.0 0 1 66.74 38.11
  Q 65.83 38.37 64.98 37.97
  A 1.36 1.29 -32.7 0 0 64.34 37.85
  Z"
/>
<path fill="#cdcdcd" d="
  M 183.62 36.84
  C 179.70 37.68 176.57 37.73 174.60 41.83
  A 1.15 1.15 0.0 0 0 174.60 42.81
  L 174.95 43.54
  A 0.37 0.37 0.0 0 1 174.45 44.03
  L 173.03 43.32
  Q 172.47 43.05 172.75 42.50
  Q 176.09 35.98 183.57 36.24
  A 0.30 0.30 0.0 0 1 183.62 36.84
  Z"
/>
<path fill="#cdcdcd" d="
  M 54.63 36.88
  Q 54.63 36.68 54.70 36.55
  Q 55.01 36.00 55.52 36.37
  L 57.50 37.85
  A 0.93 0.93 0.0 0 0 58.37 37.98
  Q 58.50 37.94 58.62 37.90
  Q 59.04 37.74 58.72 37.44
  L 58.11 36.85
  A 0.37 0.37 0.0 0 1 58.51 36.24
  L 60.80 37.20
  Q 62.11 37.74 60.74 38.11
  Q 57.43 38.99 54.01 37.89
  Q 53.48 37.72 53.91 37.36
  Q 54.24 37.08 54.63 36.88
  Z"
/>
<path fill="#cdcdcd" d="
  M 232.61 37.39
  Q 234.89 36.97 237.06 37.76
  A 0.25 0.24 -35.8 0 1 236.98 38.23
  L 232.73 38.44
  A 0.53 0.53 0.0 0 1 232.61 37.39
  Z"
/>
<path fill="#cdcdcd" d="
  M 59.64 42.56
  Q 59.65 40.95 61.07 40.30
  A 0.41 0.41 0.0 0 1 61.62 40.82
  Q 60.48 43.73 63.46 44.58
  A 0.59 0.58 30.1 0 1 63.72 45.55
  L 62.69 46.61
  Q 62.35 46.96 62.10 46.54
  L 61.69 45.83
  A 0.36 0.35 -59.3 0 0 61.03 46.00
  L 61.02 46.53
  A 0.24 0.24 0.0 0 1 60.64 46.71
  Q 59.09 45.54 57.39 46.64
  Q 56.87 46.97 56.37 46.62
  Q 55.36 45.92 54.09 46.16
  A 0.43 0.42 -10.5 0 1 53.60 45.83
  L 53.55 45.55
  A 0.34 0.33 86.6 0 1 53.90 45.15
  Q 55.67 45.25 56.82 44.01
  A 0.32 0.32 0.0 0 0 56.44 43.51
  C 52.95 45.39 52.36 40.94 49.11 43.56
  A 1.04 1.03 -12.8 0 1 47.45 42.52
  L 48.15 39.53
  A 0.63 0.62 13.0 0 1 48.90 39.07
  L 53.44 40.17
  Q 53.99 40.30 54.43 40.64
  Q 55.89 41.77 57.94 41.61
  Q 58.34 41.58 58.55 41.92
  L 59.04 42.73
  A 0.33 0.32 -60.7 0 0 59.64 42.56
  Z"
/>
<path fill="#cdcdcd" d="
  M 87.05 49.72
  L 89.62 51.70
  A 0.54 0.54 0.0 0 1 89.67 52.51
  L 88.15 54.02
  Q 87.68 54.48 87.14 54.10
  L 83.78 51.67
  Q 83.30 51.33 82.75 51.51
  L 81.23 51.99
  A 0.36 0.36 0.0 0 1 80.81 51.45
  Q 81.31 50.68 82.33 50.77
  A 0.84 0.84 0.0 0 0 83.15 50.32
  Q 83.91 48.84 85.61 49.22
  Q 86.27 49.38 85.77 48.91
  Q 85.66 48.81 85.51 48.73
  Q 85.12 48.50 84.94 48.08
  L 84.69 47.49
  Q 84.58 47.25 84.33 47.14
  Q 82.41 46.28 80.97 44.71
  A 0.79 0.77 63.2 0 0 80.27 44.47
  L 77.17 45.03
  Q 77.05 45.05 77.07 45.17
  L 77.78 48.21
  A 0.69 0.68 -13.6 0 1 77.28 49.02
  L 75.38 49.50
  Q 74.53 49.72 75.15 50.34
  Q 76.32 51.52 78.02 51.53
  A 0.45 0.45 0.0 0 1 78.12 52.42
  L 75.50 53.03
  A 0.63 0.62 79.3 0 1 74.75 52.51
  L 74.45 50.52
  A 0.28 0.28 0.0 0 0 73.90 50.49
  L 73.62 51.38
  Q 73.48 51.87 73.00 52.07
  C 69.95 53.34 66.64 57.33 71.38 59.37
  Q 74.28 60.62 77.11 62.05
  Q 77.58 62.29 77.64 62.82
  Q 77.79 64.18 78.28 64.67
  Q 79.08 65.48 79.87 65.11
  A 0.67 0.67 0.0 0 0 80.21 64.25
  Q 79.15 61.68 81.56 60.88
  A 0.63 0.63 0.0 0 0 81.86 59.90
  L 81.13 58.94
  Q 80.80 58.51 80.80 57.97
  L 80.82 54.53
  A 0.61 0.61 0.0 0 1 81.43 53.93
  Q 85.60 53.94 87.13 57.81
  A 1.14 1.14 0.0 0 0 89.26 57.79
  Q 89.54 57.05 90.21 56.91
  Q 90.77 56.79 90.92 57.35
  Q 91.89 60.99 95.18 62.81
  A 1.56 1.55 56.4 0 1 94.60 65.72
  C 92.55 65.94 87.97 66.19 86.47 68.05
  Q 85.69 69.01 86.81 68.49
  L 89.09 67.44
  A 0.49 0.49 0.0 0 1 89.78 67.88
  L 89.77 69.85
  A 0.58 0.58 0.0 0 0 90.51 70.41
  L 92.75 69.77
  A 0.28 0.28 0.0 0 1 93.02 70.25
  Q 90.99 72.09 88.45 71.12
  A 0.90 0.88 -56.1 0 0 87.52 71.31
  Q 85.69 73.08 83.91 74.82
  Q 82.90 75.80 81.72 78.10
  Q 80.63 80.24 78.60 81.69
  A 0.95 0.93 68.4 0 0 78.22 82.59
  L 78.88 86.81
  A 0.30 0.30 0.0 0 1 78.31 86.98
  L 76.78 83.55
  A 0.98 0.96 -15.4 0 0 75.77 82.99
  L 68.25 83.91
  A 1.27 1.26 -81.5 0 0 67.26 84.65
  C 66.26 86.92 66.38 92.10 69.98 92.39
  Q 70.61 92.44 71.02 91.96
  L 72.49 90.19
  A 0.90 0.90 0.0 0 1 73.91 91.30
  L 72.87 92.74
  Q 72.61 93.11 72.93 93.44
  Q 73.92 94.43 75.31 93.99
  A 1.10 1.09 -1.7 0 1 76.71 95.30
  Q 75.99 98.18 78.61 99.17
  Q 79.12 99.36 78.66 99.65
  Q 78.49 99.76 78.24 99.80
  C 76.84 100.03 75.40 97.83 75.00 96.74
  Q 74.82 96.25 74.32 96.09
  C 71.84 95.32 70.26 94.24 67.51 93.83
  Q 63.45 93.22 61.27 89.96
  C 58.55 85.88 55.07 83.02 51.39 79.86
  C 46.91 76.01 49.37 70.67 46.65 66.51
  C 42.15 59.64 37.07 54.40 28.00 57.00
  Q 27.54 57.13 27.40 57.58
  L 27.05 58.70
  A 1.05 1.03 2.4 0 1 26.28 59.40
  Q 25.20 59.63 24.56 58.78
  Q 24.21 58.32 23.67 58.11
  L 19.59 56.53
  A 1.58 1.57 -40.7 0 1 19.82 53.53
  L 21.47 53.16
  Q 22.21 52.99 21.98 52.26
  L 21.72 51.42
  Q 21.51 50.74 20.95 51.17
  Q 19.94 51.96 18.66 51.61
  A 0.99 0.99 0.0 0 1 18.99 49.66
  Q 19.95 49.73 20.79 50.23
  A 0.50 0.50 0.0 0 0 21.53 49.65
  Q 21.11 48.34 19.62 48.26
  Q 17.98 48.17 19.05 46.92
  C 24.65 40.39 35.84 47.59 43.32 45.60
  Q 44.96 45.17 46.73 45.36
  C 48.83 45.59 51.62 45.59 53.66 46.81
  Q 55.74 48.05 56.87 48.10
  Q 59.03 48.20 61.00 47.14
  Q 61.44 46.91 61.86 47.18
  Q 63.53 48.28 65.50 48.00
  Q 66.27 47.89 66.37 47.44
  Q 66.44 47.10 65.99 46.73
  A 0.52 0.51 55.0 0 1 66.14 45.84
  L 67.28 45.43
  Q 67.66 45.30 67.78 44.92
  L 68.64 42.34
  A 0.65 0.61 -49.4 0 0 68.62 41.88
  Q 68.18 40.88 68.66 39.95
  Q 68.92 39.45 69.46 39.63
  L 71.20 40.21
  A 0.37 0.36 -49.6 0 1 71.25 40.88
  L 69.21 41.99
  A 0.55 0.54 49.5 0 0 69.14 42.90
  L 70.21 43.74
  Q 70.60 44.04 70.53 44.53
  Q 70.25 46.42 72.13 46.22
  A 0.72 0.71 -17.6 0 1 72.83 46.58
  L 74.07 48.73
  A 0.48 0.48 0.0 0 0 74.95 48.59
  L 75.55 45.76
  Q 75.68 45.16 75.07 45.05
  Q 72.87 44.68 72.25 42.20
  Q 72.10 41.61 72.57 41.24
  L 73.59 40.44
  A 0.60 0.60 0.0 0 1 74.55 40.82
  L 74.93 43.51
  A 0.37 0.37 0.0 0 0 75.66 43.48
  L 75.80 40.98
  Q 75.83 40.48 76.31 40.35
  Q 79.80 39.45 81.93 41.93
  A 2.56 2.50 -9.4 0 0 82.96 42.65
  Q 86.11 43.79 88.13 46.28
  C 89.21 47.60 90.54 48.11 91.77 49.23
  A 0.47 0.47 0.0 0 1 91.64 50.01
  L 90.61 50.46
  A 0.87 0.86 54.4 0 1 89.67 50.30
  Q 88.60 49.29 87.17 49.36
  Q 86.61 49.38 87.05 49.72
  Z
  M 67.66 47.46
  A 0.36 0.36 0.0 0 0 67.99 47.94
  Q 69.64 47.96 69.72 46.24
  A 0.46 0.46 0.0 0 0 69.47 45.80
  L 69.11 45.62
  Q 68.41 45.26 68.16 46.00
  L 67.66 47.46
  Z
  M 52.30 48.42
  L 48.79 49.71
  A 0.15 0.15 0.0 0 0 48.71 49.90
  L 48.74 50.00
  A 1.88 1.49 -20.2 0 0 51.02 50.74
  L 51.28 50.65
  A 1.88 1.49 -20.2 0 0 52.53 48.60
  L 52.50 48.51
  A 0.15 0.15 0.0 0 0 52.30 48.42
  Z
  M 56.3201 54.1102
  A 1.30 0.55 -30.5 0 0 54.9209 54.2961
  A 1.30 0.55 -30.5 0 0 54.0799 55.4298
  A 1.30 0.55 -30.5 0 0 55.4791 55.2439
  A 1.30 0.55 -30.5 0 0 56.3201 54.1102
  Z
  M 67.4368 65.2238
  A 1.35 0.50 60.4 0 0 67.2047 63.8030
  A 1.35 0.50 60.4 0 0 66.1032 62.8762
  A 1.35 0.50 60.4 0 0 66.3353 64.2970
  A 1.35 0.50 60.4 0 0 67.4368 65.2238
  Z
  M 74.36 69.85
  L 73.72 71.99
  A 0.99 0.54 81.3 0 0 74.68 73.26
  Q 74.97 72.56 74.80 72.03
  A 1.07 0.91 -83.0 0 1 76.21 70.74
  Q 77.50 71.82 77.16 73.39
  Q 77.06 73.88 77.55 73.81
  L 77.86 73.76
  Q 78.15 73.72 78.21 73.44
  L 78.74 70.87
  A 0.59 0.59 0.0 0 0 78.13 70.16
  Q 75.60 70.29 74.98 67.88
  A 0.65 0.65 0.0 0 0 74.12 67.44
  L 71.23 68.54
  A 0.49 0.49 0.0 0 0 71.47 69.48
  L 73.82 69.21
  A 0.50 0.50 0.0 0 1 74.36 69.85
  Z
  M 81.59 72.20
  A 0.28 0.27 34.6 0 0 81.49 71.67
  L 80.25 71.62
  A 0.42 0.35 43.2 0 0 80.34 72.39
  Q 81.00 72.44 81.59 72.20
  Z"
/>
<path fill="#cdcdcd" d="
  M 64.49 41.40
  A 1.20 1.19 73.0 0 1 65.15 40.16
  L 65.47 40.01
  Q 66.31 39.60 66.74 40.43
  Q 67.55 41.97 66.43 42.87
  Q 66.01 43.21 65.53 42.96
  Q 64.63 42.48 64.49 41.40
  Z"
/>
<path fill="#ffffff" d="
  M 67.66 47.46
  L 68.16 46.00
  Q 68.41 45.26 69.11 45.62
  L 69.47 45.80
  A 0.46 0.46 0.0 0 1 69.72 46.24
  Q 69.64 47.96 67.99 47.94
  A 0.36 0.36 0.0 0 1 67.66 47.46
  Z"
/>
<path fill="#cdcdcd" d="
  M 166.65 47.12
  Q 167.49 46.81 168.03 47.45
  A 0.44 0.44 0.0 0 1 167.69 48.17
  L 166.84 48.16
  A 0.54 0.54 0.0 0 1 166.65 47.12
  Z"
/>
<path fill="#ffffff" d="
  M 52.30 48.42
  A 0.15 0.15 0.0 0 1 52.50 48.51
  L 52.53 48.60
  A 1.88 1.49 -20.2 0 1 51.28 50.65
  L 51.02 50.74
  A 1.88 1.49 -20.2 0 1 48.74 50.00
  L 48.71 49.90
  A 0.15 0.15 0.0 0 1 48.79 49.71
  L 52.30 48.42
  Z"
/>
<path fill="#cdcdcd" d="
  M 125.67 49.76
  A 0.24 0.24 0.0 0 1 125.94 49.96
  L 125.99 50.29
  A 2.61 1.47 -8.4 0 1 123.62 52.13
  L 122.63 52.27
  A 2.61 1.47 -8.4 0 1 119.84 51.20
  L 119.79 50.87
  A 0.24 0.24 0.0 0 1 119.99 50.60
  L 125.67 49.76
  Z"
/>
<ellipse fill="#ffffff" cx="0.00" cy="0.00" transform="translate(55.20,54.77) rotate(-30.5)" rx="1.30" ry="0.55"/>
<path fill="#cdcdcd" d="
  M 133.50 62.62
  C 132.82 61.40 130.81 60.03 132.30 58.45
  A 0.56 0.56 0.0 0 1 133.20 58.58
  L 136.36 64.75
  A 0.51 0.51 0.0 0 1 135.87 65.50
  L 133.24 65.34
  A 0.48 0.47 -72.0 0 1 132.87 64.61
  L 133.47 63.68
  Q 133.80 63.16 133.50 62.62
  Z"
/>
<ellipse fill="#cdcdcd" cx="0.00" cy="0.00" transform="translate(130.20,63.49) rotate(130.2)" rx="1.42" ry="0.90"/>
<ellipse fill="#ffffff" cx="0.00" cy="0.00" transform="translate(66.77,64.05) rotate(60.4)" rx="1.35" ry="0.50"/>
<path fill="#cdcdcd" d="
  M 94.63 67.49
  L 94.85 66.67
  Q 95.09 65.76 95.71 66.47
  Q 96.72 67.61 98.29 67.67
  A 0.41 0.41 0.0 0 1 98.35 68.49
  Q 96.76 68.79 95.19 68.42
  Q 94.43 68.24 94.63 67.49
  Z"
/>
<path fill="#ffffff" d="
  M 73.82 69.21
  L 71.47 69.48
  A 0.49 0.49 0.0 0 1 71.23 68.54
  L 74.12 67.44
  A 0.65 0.65 0.0 0 1 74.98 67.88
  Q 75.60 70.29 78.13 70.16
  A 0.59 0.59 0.0 0 1 78.74 70.87
  L 78.21 73.44
  Q 78.15 73.72 77.86 73.76
  L 77.55 73.81
  Q 77.06 73.88 77.16 73.39
  Q 77.50 71.82 76.21 70.74
  A 1.07 0.91 -83.0 0 0 74.80 72.03
  Q 74.97 72.56 74.68 73.26
  A 0.99 0.54 81.3 0 1 73.72 71.99
  L 74.36 69.85
  A 0.50 0.50 0.0 0 0 73.82 69.21
  Z"
/>
<path fill="#ffffff" d="
  M 171.45 72.36
  L 172.79 73.42
  Q 173.17 73.72 173.14 74.20
  L 172.93 77.46
  Q 172.90 78.02 172.34 78.05
  Q 171.13 78.12 170.33 77.24
  A 1.39 1.36 -65.4 0 1 169.98 76.27
  Q 170.10 73.70 168.35 71.84
  A 0.53 0.52 -43.1 0 1 168.38 71.08
  Q 169.90 69.69 171.93 69.28
  A 0.79 0.79 0.0 0 1 172.52 70.72
  L 171.50 71.36
  Q 170.77 71.83 171.45 72.36
  Z"
/>
<path fill="#ffffff" d="
  M 81.59 72.20
  Q 81.00 72.44 80.34 72.39
  A 0.42 0.35 43.2 0 1 80.25 71.62
  L 81.49 71.67
  A 0.28 0.27 34.6 0 1 81.59 72.20
  Z"
/>
<path fill="#cdcdcd" d="
  M 233.99 72.76
  Q 234.07 72.04 234.92 71.65
  Q 236.07 71.13 236.68 72.31
  Q 236.95 72.82 236.37 72.89
  L 234.37 73.14
  Q 233.94 73.19 233.99 72.76
  Z"
/>
<path fill="#cdcdcd" d="
  M 227.19 80.47
  C 229.21 77.75 232.95 80.04 233.61 74.75
  Q 233.74 73.70 234.12 74.69
  C 236.03 79.68 230.57 79.81 227.69 81.09
  A 0.41 0.41 0.0 0 1 227.19 80.47
  Z"
/>
<path fill="#cdcdcd" d="
  M 84.54 91.10
  L 86.16 91.06
  A 0.40 0.40 0.0 0 1 86.29 91.85
  Q 84.83 92.28 83.78 91.19
  Q 83.41 90.80 83.92 90.96
  Q 84.11 91.03 84.30 91.07
  Q 84.42 91.11 84.54 91.10
  Z"
/>
<path fill="#cdcdcd" d="
  M 220.51 92.55
  C 221.07 95.42 223.24 97.64 223.66 100.24
  Q 223.74 100.76 223.23 100.88
  Q 221.88 101.18 221.78 100.00
  Q 221.49 96.71 219.68 94.58
  Q 219.33 94.17 219.33 93.64
  Q 219.33 92.83 219.86 92.34
  Q 220.37 91.87 220.51 92.55
  Z"
/>
<path fill="#cdcdcd" d="
  M 81.26 98.87
  C 82.43 97.82 83.31 97.15 85.01 97.24
  Q 93.80 97.73 100.06 103.57
  C 103.12 106.42 106.20 107.16 109.99 108.56
  A 1.93 1.93 0.0 0 1 110.82 111.58
  Q 107.99 115.07 107.35 119.52
  A 1.43 1.41 77.0 0 1 106.76 120.48
  C 104.76 121.84 102.98 122.52 101.62 124.64
  Q 97.53 130.98 91.45 135.45
  C 89.91 136.58 88.55 139.19 88.38 141.43
  C 88.21 143.60 85.19 145.92 87.73 147.87
  A 0.64 0.64 0.0 0 1 87.01 148.93
  Q 82.93 146.52 83.27 141.76
  Q 83.98 131.78 86.01 122.01
  Q 86.26 120.78 86.04 118.98
  A 1.06 1.01 -79.3 0 0 85.55 118.23
  C 81.45 115.77 76.42 108.59 80.04 103.69
  C 81.28 102.00 81.46 100.50 79.85 99.12
  A 0.15 0.14 72.9 0 1 79.98 98.87
  L 80.54 99.03
  Q 80.94 99.14 81.26 98.87
  Z"
/>
<ellipse fill="#cdcdcd" cx="0.00" cy="0.00" transform="translate(204.57,99.35) rotate(67.9)" rx="1.01" ry="0.38"/>
<ellipse fill="#cdcdcd" cx="0.00" cy="0.00" transform="translate(192.36,99.97) rotate(69.0)" rx="0.95" ry="0.62"/>
<ellipse fill="#cdcdcd" cx="0.00" cy="0.00" transform="translate(206.55,102.00) rotate(69.6)" rx="1.21" ry="0.62"/>
<path fill="#cdcdcd" d="
  M 214.88 103.38
  Q 215.80 101.70 217.21 100.79
  A 0.49 0.48 -86.4 0 1 217.84 101.51
  Q 217.04 102.47 217.16 103.60
  A 3.53 2.27 85.9 0 1 215.05 107.48
  Q 212.29 107.45 211.66 104.99
  A 0.56 0.55 -5.7 0 1 212.23 104.30
  Q 214.29 104.43 214.88 103.38
  Z"
/>
<path fill="#cdcdcd" d="
  M 206.07 104.55
  C 207.20 105.83 208.90 106.86 209.36 108.93
  A 1.18 1.17 -82.9 0 0 209.97 109.72
  Q 211.45 110.46 213.49 110.34
  Q 213.82 110.32 214.05 110.56
  Q 214.41 110.93 213.89 110.93
  Q 209.57 110.92 207.19 107.76
  C 205.38 105.34 204.60 104.37 202.87 102.69
  A 0.30 0.29 81.9 0 1 203.22 102.22
  Q 204.89 103.19 206.07 104.55
  Z"
/>
<ellipse fill="#ffffff" cx="0.00" cy="0.00" transform="translate(158.34,106.02) rotate(-25.1)" rx="0.98" ry="0.87"/>
<path fill="#cdcdcd" d="
  M 230.92 107.62
  A 0.20 0.20 0.0 0 1 230.98 107.23
  Q 236.35 107.49 239.36 111.63
  A 0.42 0.42 0.0 0 1 238.73 112.19
  L 237.40 110.96
  A 1.05 1.04 57.9 0 0 236.36 110.72
  Q 234.71 111.25 233.33 110.27
  A 0.99 0.98 12.1 0 1 232.95 109.69
  Q 232.61 108.04 230.92 107.62
  Z"
/>
<path fill="#cdcdcd" d="
  M 234.29 117.27
  L 234.63 113.97
  A 0.30 0.30 0.0 0 1 235.17 113.83
  C 236.49 115.73 237.06 117.75 238.66 119.40
  C 242.72 123.61 243.97 127.44 240.33 132.39
  Q 238.60 134.73 235.13 134.09
  Q 234.62 133.99 234.26 133.62
  C 231.31 130.60 228.57 127.53 223.80 129.13
  Q 220.46 130.25 217.06 131.01
  Q 216.50 131.14 216.35 130.59
  C 215.60 127.87 213.85 123.71 215.28 121.17
  Q 215.54 120.72 216.02 120.53
  Q 219.06 119.29 221.59 117.26
  C 223.38 115.82 225.04 115.31 227.04 114.46
  C 230.93 112.81 229.96 116.90 233.36 117.89
  Q 234.21 118.14 234.29 117.27
  Z"
/>
<path fill="#cdcdcd" d="
  M 167.62 123.82
  A 0.12 0.12 0.0 0 1 167.47 123.90
  L 167.42 123.88
  A 4.59 2.41 -72.0 0 1 166.55 118.77
  L 166.66 118.45
  A 4.59 2.41 -72.0 0 1 170.37 114.83
  L 170.41 114.84
  A 0.12 0.12 0.0 0 1 170.49 115.00
  L 167.62 123.82
  Z"
/>
<path fill="#cdcdcd" d="
  M 252.86 140.53
  C 254.17 137.78 257.29 137.25 258.39 133.88
  Q 258.59 133.29 259.00 133.75
  L 259.25 134.02
  Q 259.61 134.42 259.24 134.81
  L 253.38 140.88
  A 0.32 0.32 0.0 0 1 252.86 140.53
  Z"
/>
<ellipse fill="#cdcdcd" cx="0.00" cy="0.00" transform="translate(237.94,136.93) rotate(48.7)" rx="0.89" ry="0.74"/>
</svg>
